<?xml version="1.0" encoding="utf-8"?>
<!-- Generator: Adobe Illustrator 26.5.0, SVG Export Plug-In . SVG Version: 6.00 Build 0)  -->
<svg version="1.1" id="Capa_1" xmlns="http://www.w3.org/2000/svg" xmlns:xlink="http://www.w3.org/1999/xlink" x="0px" y="0px"
	 viewBox="0 0 970 1102" style="enable-background:new 0 0 970 1102;" xml:space="preserve">
<style type="text/css">
	.st0{opacity:0.5;}
	.st1{fill:#FFFFFF;}
	.st2{fill:#43A02B;}
	.st3{fill:#F39B09;}
	.st4{fill:#239AD2;}
	.st5{fill:#A8211C;}
	.st6{fill:#653587;}
	.st7{fill:#E0740B;}
	.st8{fill:#8A933B;}
	.st9{fill:#004E80;}
	.st10{fill:#A2659F;}
	.st11{fill:#E6BC01;}
	.st12{fill:#E0007E;}
</style>
<g>
	<g class="st0">
		<path class="st1" d="M11.91,19.44c4.48,0,8.11-3.63,8.11-8.11c0-4.48-3.63-8.11-8.11-8.11c-4.48,0-8.11,3.63-8.11,8.11
			C3.8,15.81,7.43,19.44,11.91,19.44"/>
		<path class="st1" d="M11.91,46.47c4.48,0,8.11-3.63,8.11-8.11c0-4.48-3.63-8.11-8.11-8.11c-4.48,0-8.11,3.63-8.11,8.11
			C3.8,42.84,7.43,46.47,11.91,46.47"/>
		<path class="st1" d="M11.91,73.5c4.48,0,8.11-3.63,8.11-8.11c0-4.48-3.63-8.11-8.11-8.11c-4.48,0-8.11,3.63-8.11,8.11
			C3.8,69.87,7.43,73.5,11.91,73.5"/>
		<path class="st1" d="M38.94,19.44c4.48,0,8.11-3.63,8.11-8.11c0-4.48-3.63-8.11-8.11-8.11c-4.48,0-8.11,3.63-8.11,8.11
			C30.83,15.81,34.46,19.44,38.94,19.44"/>
		<path class="st1" d="M38.94,46.47c4.48,0,8.11-3.63,8.11-8.11c0-4.48-3.63-8.11-8.11-8.11c-4.48,0-8.11,3.63-8.11,8.11
			C30.83,42.84,34.46,46.47,38.94,46.47"/>
		<path class="st1" d="M38.94,100.54c4.48,0,8.11-3.63,8.11-8.11c0-4.48-3.63-8.11-8.11-8.11c-4.48,0-8.11,3.63-8.11,8.11
			C30.83,96.91,34.46,100.54,38.94,100.54"/>
		<path class="st1" d="M38.94,127.57c4.48,0,8.11-3.63,8.11-8.11c0-4.48-3.63-8.11-8.11-8.11c-4.48,0-8.11,3.63-8.11,8.11
			C30.83,123.94,34.46,127.57,38.94,127.57"/>
		<path class="st1" d="M65.98,19.44c4.48,0,8.11-3.63,8.11-8.11c0-4.48-3.63-8.11-8.11-8.11c-4.48,0-8.11,3.63-8.11,8.11
			C57.87,15.81,61.5,19.44,65.98,19.44"/>
		<path class="st1" d="M65.98,46.47c4.48,0,8.11-3.63,8.11-8.11c0-4.48-3.63-8.11-8.11-8.11c-4.48,0-8.11,3.63-8.11,8.11
			C57.87,42.84,61.5,46.47,65.98,46.47"/>
		<path class="st1" d="M65.98,73.5c4.48,0,8.11-3.63,8.11-8.11c0-4.48-3.63-8.11-8.11-8.11c-4.48,0-8.11,3.63-8.11,8.11
			C57.87,69.87,61.5,73.5,65.98,73.5"/>
		<path class="st1" d="M93.01,19.44c4.48,0,8.11-3.63,8.11-8.11c0-4.48-3.63-8.11-8.11-8.11c-4.48,0-8.11,3.63-8.11,8.11
			C84.9,15.81,88.53,19.44,93.01,19.44"/>
		<path class="st1" d="M93.01,46.47c4.48,0,8.11-3.63,8.11-8.11c0-4.48-3.63-8.11-8.11-8.11c-4.48,0-8.11,3.63-8.11,8.11
			C84.9,42.84,88.53,46.47,93.01,46.47"/>
		<path class="st1" d="M93.01,73.5c4.48,0,8.11-3.63,8.11-8.11c0-4.48-3.63-8.11-8.11-8.11c-4.48,0-8.11,3.63-8.11,8.11
			C84.9,69.87,88.53,73.5,93.01,73.5"/>
		<path class="st1" d="M93.01,100.54c4.48,0,8.11-3.63,8.11-8.11c0-4.48-3.63-8.11-8.11-8.11c-4.48,0-8.11,3.63-8.11,8.11
			C84.9,96.91,88.53,100.54,93.01,100.54"/>
		<path class="st1" d="M93.01,127.57c4.48,0,8.11-3.63,8.11-8.11c0-4.48-3.63-8.11-8.11-8.11c-4.48,0-8.11,3.63-8.11,8.11
			C84.9,123.94,88.53,127.57,93.01,127.57"/>
		<path class="st1" d="M93.01,154.61c4.48,0,8.11-3.63,8.11-8.11c0-4.48-3.63-8.11-8.11-8.11c-4.48,0-8.11,3.63-8.11,8.11
			C84.9,150.98,88.53,154.61,93.01,154.61"/>
		<path class="st1" d="M93.01,181.64c4.48,0,8.11-3.63,8.11-8.11c0-4.48-3.63-8.11-8.11-8.11c-4.48,0-8.11,3.63-8.11,8.11
			C84.9,178.01,88.53,181.64,93.01,181.64"/>
		<path class="st1" d="M120.05,19.44c4.48,0,8.11-3.63,8.11-8.11c0-4.48-3.63-8.11-8.11-8.11c-4.48,0-8.11,3.63-8.11,8.11
			C111.94,15.81,115.57,19.44,120.05,19.44"/>
		<path class="st1" d="M120.05,46.47c4.48,0,8.11-3.63,8.11-8.11c0-4.48-3.63-8.11-8.11-8.11c-4.48,0-8.11,3.63-8.11,8.11
			C111.94,42.84,115.57,46.47,120.05,46.47"/>
		<path class="st1" d="M120.05,73.5c4.48,0,8.11-3.63,8.11-8.11c0-4.48-3.63-8.11-8.11-8.11c-4.48,0-8.11,3.63-8.11,8.11
			C111.94,69.87,115.57,73.5,120.05,73.5"/>
		<path class="st1" d="M120.05,100.54c4.48,0,8.11-3.63,8.11-8.11c0-4.48-3.63-8.11-8.11-8.11c-4.48,0-8.11,3.63-8.11,8.11
			C111.94,96.91,115.57,100.54,120.05,100.54"/>
		<path class="st1" d="M120.05,127.57c4.48,0,8.11-3.63,8.11-8.11c0-4.48-3.63-8.11-8.11-8.11c-4.48,0-8.11,3.63-8.11,8.11
			C111.94,123.94,115.57,127.57,120.05,127.57"/>
		<path class="st1" d="M120.05,154.61c4.48,0,8.11-3.63,8.11-8.11c0-4.48-3.63-8.11-8.11-8.11c-4.48,0-8.11,3.63-8.11,8.11
			C111.94,150.98,115.57,154.61,120.05,154.61"/>
		<path class="st1" d="M120.05,181.64c4.48,0,8.11-3.63,8.11-8.11c0-4.48-3.63-8.11-8.11-8.11c-4.48,0-8.11,3.63-8.11,8.11
			C111.94,178.01,115.57,181.64,120.05,181.64"/>
		<path class="st1" d="M147.08,46.47c4.48,0,8.11-3.63,8.11-8.11c0-4.48-3.63-8.11-8.11-8.11c-4.48,0-8.11,3.63-8.11,8.11
			C138.97,42.84,142.6,46.47,147.08,46.47"/>
		<path class="st1" d="M147.08,73.5c4.48,0,8.11-3.63,8.11-8.11c0-4.48-3.63-8.11-8.11-8.11c-4.48,0-8.11,3.63-8.11,8.11
			C138.97,69.87,142.6,73.5,147.08,73.5"/>
		<path class="st1" d="M147.08,100.54c4.48,0,8.11-3.63,8.11-8.11c0-4.48-3.63-8.11-8.11-8.11c-4.48,0-8.11,3.63-8.11,8.11
			C138.97,96.91,142.6,100.54,147.08,100.54"/>
		<path class="st1" d="M147.08,127.57c4.48,0,8.11-3.63,8.11-8.11c0-4.48-3.63-8.11-8.11-8.11c-4.48,0-8.11,3.63-8.11,8.11
			C138.97,123.94,142.6,127.57,147.08,127.57"/>
		<path class="st1" d="M147.08,154.61c4.48,0,8.11-3.63,8.11-8.11c0-4.48-3.63-8.11-8.11-8.11c-4.48,0-8.11,3.63-8.11,8.11
			C138.97,150.98,142.6,154.61,147.08,154.61"/>
		<path class="st1" d="M147.08,181.64c4.48,0,8.11-3.63,8.11-8.11c0-4.48-3.63-8.11-8.11-8.11c-4.48,0-8.11,3.63-8.11,8.11
			C138.97,178.01,142.6,181.64,147.08,181.64"/>
		<path class="st1" d="M147.08,208.68c4.48,0,8.11-3.63,8.11-8.11c0-4.48-3.63-8.11-8.11-8.11c-4.48,0-8.11,3.63-8.11,8.11
			C138.97,205.04,142.6,208.68,147.08,208.68"/>
		<path class="st1" d="M174.12,73.5c4.48,0,8.11-3.63,8.11-8.11c0-4.48-3.63-8.11-8.11-8.11c-4.48,0-8.11,3.63-8.11,8.11
			C166.01,69.87,169.64,73.5,174.12,73.5"/>
		<path class="st1" d="M174.12,100.54c4.48,0,8.11-3.63,8.11-8.11c0-4.48-3.63-8.11-8.11-8.11c-4.48,0-8.11,3.63-8.11,8.11
			C166.01,96.91,169.64,100.54,174.12,100.54"/>
		<path class="st1" d="M174.12,127.57c4.48,0,8.11-3.63,8.11-8.11c0-4.48-3.63-8.11-8.11-8.11c-4.48,0-8.11,3.63-8.11,8.11
			C166.01,123.94,169.64,127.57,174.12,127.57"/>
		<path class="st1" d="M174.12,154.61c4.48,0,8.11-3.63,8.11-8.11c0-4.48-3.63-8.11-8.11-8.11c-4.48,0-8.11,3.63-8.11,8.11
			C166.01,150.98,169.64,154.61,174.12,154.61"/>
		<path class="st1" d="M174.12,181.64c4.48,0,8.11-3.63,8.11-8.11c0-4.48-3.63-8.11-8.11-8.11c-4.48,0-8.11,3.63-8.11,8.11
			C166.01,178.01,169.64,181.64,174.12,181.64"/>
		<path class="st1" d="M174.12,208.68c4.48,0,8.11-3.63,8.11-8.11c0-4.48-3.63-8.11-8.11-8.11c-4.48,0-8.11,3.63-8.11,8.11
			C166.01,205.04,169.64,208.68,174.12,208.68"/>
		<path class="st1" d="M201.15,100.54c4.48,0,8.11-3.63,8.11-8.11c0-4.48-3.63-8.11-8.11-8.11c-4.48,0-8.11,3.63-8.11,8.11
			C193.04,96.91,196.67,100.54,201.15,100.54"/>
		<path class="st1" d="M201.15,181.64c4.48,0,8.11-3.63,8.11-8.11c0-4.48-3.63-8.11-8.11-8.11c-4.48,0-8.11,3.63-8.11,8.11
			C193.04,178.01,196.67,181.64,201.15,181.64"/>
		<path class="st1" d="M201.15,208.68c4.48,0,8.11-3.63,8.11-8.11c0-4.48-3.63-8.11-8.11-8.11c-4.48,0-8.11,3.63-8.11,8.11
			C193.04,205.04,196.67,208.68,201.15,208.68"/>
		<path class="st1" d="M201.15,235.71c4.48,0,8.11-3.63,8.11-8.11c0-4.48-3.63-8.11-8.11-8.11c-4.48,0-8.11,3.63-8.11,8.11
			C193.04,232.08,196.67,235.71,201.15,235.71"/>
		<path class="st1" d="M228.19,208.68c4.48,0,8.11-3.63,8.11-8.11c0-4.48-3.63-8.11-8.11-8.11c-4.48,0-8.11,3.63-8.11,8.11
			C220.08,205.04,223.71,208.68,228.19,208.68"/>
		<path class="st1" d="M228.19,235.71c4.48,0,8.11-3.63,8.11-8.11c0-4.48-3.63-8.11-8.11-8.11c-4.48,0-8.11,3.63-8.11,8.11
			C220.08,232.08,223.71,235.71,228.19,235.71"/>
		<path class="st1" d="M255.22,181.64c4.48,0,8.11-3.63,8.11-8.11c0-4.48-3.63-8.11-8.11-8.11c-4.48,0-8.11,3.63-8.11,8.11
			C247.11,178.01,250.74,181.64,255.22,181.64"/>
		<path class="st1" d="M255.22,208.68c4.48,0,8.11-3.63,8.11-8.11c0-4.48-3.63-8.11-8.11-8.11c-4.48,0-8.11,3.63-8.11,8.11
			C247.11,205.04,250.74,208.68,255.22,208.68"/>
		<path class="st1" d="M255.22,235.71c4.48,0,8.11-3.63,8.11-8.11c0-4.48-3.63-8.11-8.11-8.11c-4.48,0-8.11,3.63-8.11,8.11
			C247.11,232.08,250.74,235.71,255.22,235.71"/>
		<path class="st1" d="M309.29,154.61c4.48,0,8.11-3.63,8.11-8.11c0-4.48-3.63-8.11-8.11-8.11c-4.48,0-8.11,3.63-8.11,8.11
			C301.18,150.98,304.81,154.61,309.29,154.61"/>
		<path class="st1" d="M358.03,145.11c4.48,0,8.11-3.63,8.11-8.11c0-4.48-3.63-8.11-8.11-8.11c-4.48,0-8.11,3.63-8.11,8.11
			C349.92,141.47,353.55,145.11,358.03,145.11"/>
		<path class="st1" d="M385.06,145.11c4.48,0,8.11-3.63,8.11-8.11c0-4.48-3.63-8.11-8.11-8.11c-4.48,0-8.11,3.63-8.11,8.11
			C376.95,141.47,380.58,145.11,385.06,145.11"/>
		<path class="st1" d="M412.09,145.11c4.48,0,8.11-3.63,8.11-8.11c0-4.48-3.63-8.11-8.11-8.11c-4.48,0-8.11,3.63-8.11,8.11
			C403.98,141.47,407.61,145.11,412.09,145.11"/>
		<path class="st1" d="M282.25,181.64c4.48,0,8.11-3.63,8.11-8.11c0-4.48-3.63-8.11-8.11-8.11c-4.48,0-8.11,3.63-8.11,8.11
			C274.14,178.01,277.77,181.64,282.25,181.64"/>
		<path class="st1" d="M309.29,181.64c4.48,0,8.11-3.63,8.11-8.11c0-4.48-3.63-8.11-8.11-8.11c-4.48,0-8.11,3.63-8.11,8.11
			C301.18,178.01,304.81,181.64,309.29,181.64"/>
		<path class="st1" d="M412.09,172.14c4.48,0,8.11-3.63,8.11-8.11c0-4.48-3.63-8.11-8.11-8.11c-4.48,0-8.11,3.63-8.11,8.11
			C403.98,168.51,407.61,172.14,412.09,172.14"/>
		<path class="st1" d="M439.13,172.14c4.48,0,8.11-3.63,8.11-8.11c0-4.48-3.63-8.11-8.11-8.11c-4.48,0-8.11,3.63-8.11,8.11
			C431.02,168.51,434.65,172.14,439.13,172.14"/>
		<path class="st1" d="M498.53,181.64c4.48,0,8.11-3.63,8.11-8.11c0-4.48-3.63-8.11-8.11-8.11c-4.48,0-8.11,3.63-8.11,8.11
			C490.42,178.01,494.05,181.64,498.53,181.64"/>
		<path class="st1" d="M525.56,181.64c4.48,0,8.11-3.63,8.11-8.11c0-4.48-3.63-8.11-8.11-8.11c-4.48,0-8.11,3.63-8.11,8.11
			C517.45,178.01,521.08,181.64,525.56,181.64"/>
		<path class="st1" d="M282.25,208.68c4.48,0,8.11-3.63,8.11-8.11c0-4.48-3.63-8.11-8.11-8.11c-4.48,0-8.11,3.63-8.11,8.11
			C274.14,205.04,277.77,208.68,282.25,208.68"/>
		<path class="st1" d="M498.53,208.68c4.48,0,8.11-3.63,8.11-8.11c0-4.48-3.63-8.11-8.11-8.11c-4.48,0-8.11,3.63-8.11,8.11
			C490.42,205.04,494.05,208.68,498.53,208.68"/>
		<path class="st1" d="M525.56,208.68c4.48,0,8.11-3.63,8.11-8.11c0-4.48-3.63-8.11-8.11-8.11c-4.48,0-8.11,3.63-8.11,8.11
			C517.45,205.04,521.08,208.68,525.56,208.68"/>
		<path class="st1" d="M282.25,235.71c4.48,0,8.11-3.63,8.11-8.11c0-4.48-3.63-8.11-8.11-8.11c-4.48,0-8.11,3.63-8.11,8.11
			C274.14,232.08,277.77,235.71,282.25,235.71"/>
		<path class="st1" d="M309.29,235.71c4.48,0,8.11-3.63,8.11-8.11c0-4.48-3.63-8.11-8.11-8.11c-4.48,0-8.11,3.63-8.11,8.11
			C301.18,232.08,304.81,235.71,309.29,235.71"/>
		<path class="st1" d="M336.32,235.71c4.48,0,8.11-3.63,8.11-8.11c0-4.48-3.63-8.11-8.11-8.11c-4.48,0-8.11,3.63-8.11,8.11
			C328.21,232.08,331.84,235.71,336.32,235.71"/>
		<path class="st1" d="M363.36,289.78c4.48,0,8.11-3.63,8.11-8.11s-3.63-8.11-8.11-8.11c-4.48,0-8.11,3.63-8.11,8.11
			S358.88,289.78,363.36,289.78"/>
		<path class="st1" d="M282.25,262.74c4.48,0,8.11-3.63,8.11-8.11c0-4.48-3.63-8.11-8.11-8.11c-4.48,0-8.11,3.63-8.11,8.11
			C274.14,259.11,277.77,262.74,282.25,262.74"/>
		<path class="st1" d="M309.29,262.74c4.48,0,8.11-3.63,8.11-8.11c0-4.48-3.63-8.11-8.11-8.11c-4.48,0-8.11,3.63-8.11,8.11
			C301.18,259.11,304.81,262.74,309.29,262.74"/>
		<path class="st1" d="M336.32,262.74c4.48,0,8.11-3.63,8.11-8.11c0-4.48-3.63-8.11-8.11-8.11c-4.48,0-8.11,3.63-8.11,8.11
			C328.21,259.11,331.84,262.74,336.32,262.74"/>
		<path class="st1" d="M309.29,289.78c4.48,0,8.11-3.63,8.11-8.11s-3.63-8.11-8.11-8.11c-4.48,0-8.11,3.63-8.11,8.11
			S304.81,289.78,309.29,289.78"/>
		<path class="st1" d="M336.32,289.78c4.48,0,8.11-3.63,8.11-8.11s-3.63-8.11-8.11-8.11c-4.48,0-8.11,3.63-8.11,8.11
			S331.84,289.78,336.32,289.78"/>
		<path class="st1" d="M336.32,316.81c4.48,0,8.11-3.63,8.11-8.11c0-4.48-3.63-8.11-8.11-8.11c-4.48,0-8.11,3.63-8.11,8.11
			C328.21,313.18,331.84,316.81,336.32,316.81"/>
		<path class="st1" d="M363.36,316.81c4.48,0,8.11-3.63,8.11-8.11c0-4.48-3.63-8.11-8.11-8.11c-4.48,0-8.11,3.63-8.11,8.11
			C355.25,313.18,358.88,316.81,363.36,316.81"/>
		<path class="st1" d="M390.39,316.81c4.48,0,8.11-3.63,8.11-8.11c0-4.48-3.63-8.11-8.11-8.11c-4.48,0-8.11,3.63-8.11,8.11
			C382.28,313.18,385.91,316.81,390.39,316.81"/>
		<path class="st1" d="M390.39,343.85c4.48,0,8.11-3.63,8.11-8.11c0-4.48-3.63-8.11-8.11-8.11c-4.48,0-8.11,3.63-8.11,8.11
			C382.28,340.22,385.91,343.85,390.39,343.85"/>
		<path class="st1" d="M390.39,424.95c4.48,0,8.11-3.63,8.11-8.11c0-4.48-3.63-8.11-8.11-8.11c-4.48,0-8.11,3.63-8.11,8.11
			C382.28,421.32,385.91,424.95,390.39,424.95"/>
		<path class="st1" d="M390.39,451.98c4.48,0,8.11-3.63,8.11-8.11c0-4.48-3.63-8.11-8.11-8.11c-4.48,0-8.11,3.63-8.11,8.11
			C382.28,448.35,385.91,451.98,390.39,451.98"/>
		<path class="st1" d="M390.39,506.05c4.48,0,8.11-3.63,8.11-8.11c0-4.48-3.63-8.11-8.11-8.11c-4.48,0-8.11,3.63-8.11,8.11
			C382.28,502.42,385.91,506.05,390.39,506.05"/>
		<path class="st1" d="M417.43,316.81c4.48,0,8.11-3.63,8.11-8.11c0-4.48-3.63-8.11-8.11-8.11c-4.48,0-8.11,3.63-8.11,8.11
			C409.31,313.18,412.95,316.81,417.43,316.81"/>
		<path class="st1" d="M417.43,424.95c4.48,0,8.11-3.63,8.11-8.11c0-4.48-3.63-8.11-8.11-8.11c-4.48,0-8.11,3.63-8.11,8.11
			C409.31,421.32,412.95,424.95,417.43,424.95"/>
		<path class="st1" d="M417.43,451.98c4.48,0,8.11-3.63,8.11-8.11c0-4.48-3.63-8.11-8.11-8.11c-4.48,0-8.11,3.63-8.11,8.11
			C409.31,448.35,412.95,451.98,417.43,451.98"/>
		<path class="st1" d="M417.43,479.02c4.48,0,8.11-3.63,8.11-8.11c0-4.48-3.63-8.11-8.11-8.11c-4.48,0-8.11,3.63-8.11,8.11
			C409.31,475.39,412.95,479.02,417.43,479.02"/>
		<path class="st1" d="M417.43,506.05c4.48,0,8.11-3.63,8.11-8.11c0-4.48-3.63-8.11-8.11-8.11c-4.48,0-8.11,3.63-8.11,8.11
			C409.31,502.42,412.95,506.05,417.43,506.05"/>
		<path class="st1" d="M417.43,533.09c4.48,0,8.11-3.63,8.11-8.11c0-4.48-3.63-8.11-8.11-8.11c-4.48,0-8.11,3.63-8.11,8.11
			C409.31,529.46,412.95,533.09,417.43,533.09"/>
		<path class="st1" d="M417.43,560.12c4.48,0,8.11-3.63,8.11-8.11c0-4.48-3.63-8.11-8.11-8.11c-4.48,0-8.11,3.63-8.11,8.11
			C409.31,556.49,412.95,560.12,417.43,560.12"/>
		<path class="st1" d="M444.46,316.81c4.48,0,8.11-3.63,8.11-8.11c0-4.48-3.63-8.11-8.11-8.11c-4.48,0-8.11,3.63-8.11,8.11
			C436.35,313.18,439.98,316.81,444.46,316.81"/>
		<path class="st1" d="M444.46,343.85c4.48,0,8.11-3.63,8.11-8.11c0-4.48-3.63-8.11-8.11-8.11c-4.48,0-8.11,3.63-8.11,8.11
			C436.35,340.22,439.98,343.85,444.46,343.85"/>
		<path class="st1" d="M444.46,370.88c4.48,0,8.11-3.63,8.11-8.11c0-4.48-3.63-8.11-8.11-8.11c-4.48,0-8.11,3.63-8.11,8.11
			C436.35,367.25,439.98,370.88,444.46,370.88"/>
		<path class="st1" d="M444.46,397.92c4.48,0,8.11-3.63,8.11-8.11c0-4.48-3.63-8.11-8.11-8.11c-4.48,0-8.11,3.63-8.11,8.11
			C436.35,394.29,439.98,397.92,444.46,397.92"/>
		<path class="st1" d="M444.46,424.95c4.48,0,8.11-3.63,8.11-8.11c0-4.48-3.63-8.11-8.11-8.11c-4.48,0-8.11,3.63-8.11,8.11
			C436.35,421.32,439.98,424.95,444.46,424.95"/>
		<path class="st1" d="M444.46,451.98c4.48,0,8.11-3.63,8.11-8.11c0-4.48-3.63-8.11-8.11-8.11c-4.48,0-8.11,3.63-8.11,8.11
			C436.35,448.35,439.98,451.98,444.46,451.98"/>
		<path class="st1" d="M444.46,479.02c4.48,0,8.11-3.63,8.11-8.11c0-4.48-3.63-8.11-8.11-8.11c-4.48,0-8.11,3.63-8.11,8.11
			C436.35,475.39,439.98,479.02,444.46,479.02"/>
		<path class="st1" d="M444.46,506.05c4.48,0,8.11-3.63,8.11-8.11c0-4.48-3.63-8.11-8.11-8.11c-4.48,0-8.11,3.63-8.11,8.11
			C436.35,502.42,439.98,506.05,444.46,506.05"/>
		<path class="st1" d="M444.46,533.09c4.48,0,8.11-3.63,8.11-8.11c0-4.48-3.63-8.11-8.11-8.11c-4.48,0-8.11,3.63-8.11,8.11
			C436.35,529.46,439.98,533.09,444.46,533.09"/>
		<path class="st1" d="M444.46,560.12c4.48,0,8.11-3.63,8.11-8.11c0-4.48-3.63-8.11-8.11-8.11c-4.48,0-8.11,3.63-8.11,8.11
			C436.35,556.49,439.98,560.12,444.46,560.12"/>
		<path class="st1" d="M444.46,587.16c4.48,0,8.11-3.63,8.11-8.11c0-4.48-3.63-8.11-8.11-8.11c-4.48,0-8.11,3.63-8.11,8.11
			C436.35,583.53,439.98,587.16,444.46,587.16"/>
		<path class="st1" d="M444.46,614.19c4.48,0,8.11-3.63,8.11-8.11c0-4.48-3.63-8.11-8.11-8.11c-4.48,0-8.11,3.63-8.11,8.11
			C436.35,610.56,439.98,614.19,444.46,614.19"/>
		<path class="st1" d="M471.49,289.78c4.48,0,8.11-3.63,8.11-8.11s-3.63-8.11-8.11-8.11c-4.48,0-8.11,3.63-8.11,8.11
			S467.01,289.78,471.49,289.78"/>
		<path class="st1" d="M471.49,316.81c4.48,0,8.11-3.63,8.11-8.11c0-4.48-3.63-8.11-8.11-8.11c-4.48,0-8.11,3.63-8.11,8.11
			C463.38,313.18,467.01,316.81,471.49,316.81"/>
		<path class="st1" d="M471.49,343.85c4.48,0,8.11-3.63,8.11-8.11c0-4.48-3.63-8.11-8.11-8.11c-4.48,0-8.11,3.63-8.11,8.11
			C463.38,340.22,467.01,343.85,471.49,343.85"/>
		<path class="st1" d="M471.49,370.88c4.48,0,8.11-3.63,8.11-8.11c0-4.48-3.63-8.11-8.11-8.11c-4.48,0-8.11,3.63-8.11,8.11
			C463.38,367.25,467.01,370.88,471.49,370.88"/>
		<path class="st1" d="M471.49,397.92c4.48,0,8.11-3.63,8.11-8.11c0-4.48-3.63-8.11-8.11-8.11c-4.48,0-8.11,3.63-8.11,8.11
			C463.38,394.29,467.01,397.92,471.49,397.92"/>
		<path class="st1" d="M471.49,424.95c4.48,0,8.11-3.63,8.11-8.11c0-4.48-3.63-8.11-8.11-8.11c-4.48,0-8.11,3.63-8.11,8.11
			C463.38,421.32,467.01,424.95,471.49,424.95"/>
		<path class="st1" d="M471.49,451.98c4.48,0,8.11-3.63,8.11-8.11c0-4.48-3.63-8.11-8.11-8.11c-4.48,0-8.11,3.63-8.11,8.11
			C463.38,448.35,467.01,451.98,471.49,451.98"/>
		<path class="st1" d="M471.49,479.02c4.48,0,8.11-3.63,8.11-8.11c0-4.48-3.63-8.11-8.11-8.11c-4.48,0-8.11,3.63-8.11,8.11
			C463.38,475.39,467.01,479.02,471.49,479.02"/>
		<path class="st1" d="M471.49,506.05c4.48,0,8.11-3.63,8.11-8.11c0-4.48-3.63-8.11-8.11-8.11c-4.48,0-8.11,3.63-8.11,8.11
			C463.38,502.42,467.01,506.05,471.49,506.05"/>
		<path class="st1" d="M471.49,533.09c4.48,0,8.11-3.63,8.11-8.11c0-4.48-3.63-8.11-8.11-8.11c-4.48,0-8.11,3.63-8.11,8.11
			C463.38,529.46,467.01,533.09,471.49,533.09"/>
		<path class="st1" d="M471.49,560.12c4.48,0,8.11-3.63,8.11-8.11c0-4.48-3.63-8.11-8.11-8.11c-4.48,0-8.11,3.63-8.11,8.11
			C463.38,556.49,467.01,560.12,471.49,560.12"/>
		<path class="st1" d="M471.49,587.16c4.48,0,8.11-3.63,8.11-8.11c0-4.48-3.63-8.11-8.11-8.11c-4.48,0-8.11,3.63-8.11,8.11
			C463.38,583.53,467.01,587.16,471.49,587.16"/>
		<path class="st1" d="M471.49,614.19c4.48,0,8.11-3.63,8.11-8.11c0-4.48-3.63-8.11-8.11-8.11c-4.48,0-8.11,3.63-8.11,8.11
			C463.38,610.56,467.01,614.19,471.49,614.19"/>
		<path class="st1" d="M471.49,641.22c4.48,0,8.11-3.63,8.11-8.11c0-4.48-3.63-8.11-8.11-8.11c-4.48,0-8.11,3.63-8.11,8.11
			C463.38,637.59,467.01,641.22,471.49,641.22"/>
		<path class="st1" d="M471.49,965.64c4.48,0,8.11-3.63,8.11-8.11c0-4.48-3.63-8.11-8.11-8.11c-4.48,0-8.11,3.63-8.11,8.11
			C463.38,962.01,467.01,965.64,471.49,965.64"/>
		<path class="st1" d="M471.49,1019.7c4.48,0,8.11-3.63,8.11-8.11c0-4.48-3.63-8.11-8.11-8.11c-4.48,0-8.11,3.63-8.11,8.11
			C463.38,1016.08,467.01,1019.7,471.49,1019.7"/>
		<path class="st1" d="M471.49,1046.74c4.48,0,8.11-3.63,8.11-8.11c0-4.48-3.63-8.11-8.11-8.11c-4.48,0-8.11,3.63-8.11,8.11
			C463.38,1043.11,467.01,1046.74,471.49,1046.74"/>
		<path class="st1" d="M498.53,289.78c4.48,0,8.11-3.63,8.11-8.11s-3.63-8.11-8.11-8.11c-4.48,0-8.11,3.63-8.11,8.11
			S494.05,289.78,498.53,289.78"/>
		<path class="st1" d="M498.53,316.81c4.48,0,8.11-3.63,8.11-8.11c0-4.48-3.63-8.11-8.11-8.11c-4.48,0-8.11,3.63-8.11,8.11
			C490.42,313.18,494.05,316.81,498.53,316.81"/>
		<path class="st1" d="M498.53,343.85c4.48,0,8.11-3.63,8.11-8.11c0-4.48-3.63-8.11-8.11-8.11c-4.48,0-8.11,3.63-8.11,8.11
			C490.42,340.22,494.05,343.85,498.53,343.85"/>
		<path class="st1" d="M498.53,370.88c4.48,0,8.11-3.63,8.11-8.11c0-4.48-3.63-8.11-8.11-8.11c-4.48,0-8.11,3.63-8.11,8.11
			C490.42,367.25,494.05,370.88,498.53,370.88"/>
		<path class="st1" d="M498.53,397.92c4.48,0,8.11-3.63,8.11-8.11c0-4.48-3.63-8.11-8.11-8.11c-4.48,0-8.11,3.63-8.11,8.11
			C490.42,394.29,494.05,397.92,498.53,397.92"/>
		<path class="st1" d="M498.53,424.95c4.48,0,8.11-3.63,8.11-8.11c0-4.48-3.63-8.11-8.11-8.11c-4.48,0-8.11,3.63-8.11,8.11
			C490.42,421.32,494.05,424.95,498.53,424.95"/>
		<path class="st1" d="M498.53,451.98c4.48,0,8.11-3.63,8.11-8.11c0-4.48-3.63-8.11-8.11-8.11c-4.48,0-8.11,3.63-8.11,8.11
			C490.42,448.35,494.05,451.98,498.53,451.98"/>
		<path class="st1" d="M498.53,479.02c4.48,0,8.11-3.63,8.11-8.11c0-4.48-3.63-8.11-8.11-8.11c-4.48,0-8.11,3.63-8.11,8.11
			C490.42,475.39,494.05,479.02,498.53,479.02"/>
		<path class="st1" d="M498.53,506.05c4.48,0,8.11-3.63,8.11-8.11c0-4.48-3.63-8.11-8.11-8.11c-4.48,0-8.11,3.63-8.11,8.11
			C490.42,502.42,494.05,506.05,498.53,506.05"/>
		<path class="st1" d="M498.53,533.09c4.48,0,8.11-3.63,8.11-8.11c0-4.48-3.63-8.11-8.11-8.11c-4.48,0-8.11,3.63-8.11,8.11
			C490.42,529.46,494.05,533.09,498.53,533.09"/>
		<path class="st1" d="M498.53,560.12c4.48,0,8.11-3.63,8.11-8.11c0-4.48-3.63-8.11-8.11-8.11c-4.48,0-8.11,3.63-8.11,8.11
			C490.42,556.49,494.05,560.12,498.53,560.12"/>
		<path class="st1" d="M498.53,587.16c4.48,0,8.11-3.63,8.11-8.11c0-4.48-3.63-8.11-8.11-8.11c-4.48,0-8.11,3.63-8.11,8.11
			C490.42,583.53,494.05,587.16,498.53,587.16"/>
		<path class="st1" d="M498.53,614.19c4.48,0,8.11-3.63,8.11-8.11c0-4.48-3.63-8.11-8.11-8.11c-4.48,0-8.11,3.63-8.11,8.11
			C490.42,610.56,494.05,614.19,498.53,614.19"/>
		<path class="st1" d="M498.53,641.22c4.48,0,8.11-3.63,8.11-8.11c0-4.48-3.63-8.11-8.11-8.11c-4.48,0-8.11,3.63-8.11,8.11
			C490.42,637.59,494.05,641.22,498.53,641.22"/>
		<path class="st1" d="M498.53,884.53c4.48,0,8.11-3.63,8.11-8.11c0-4.48-3.63-8.11-8.11-8.11c-4.48,0-8.11,3.63-8.11,8.11
			C490.42,880.91,494.05,884.53,498.53,884.53"/>
		<path class="st1" d="M498.53,911.57c4.48,0,8.11-3.63,8.11-8.11c0-4.48-3.63-8.11-8.11-8.11c-4.48,0-8.11,3.63-8.11,8.11
			C490.42,907.94,494.05,911.57,498.53,911.57"/>
		<path class="st1" d="M498.53,938.6c4.48,0,8.11-3.63,8.11-8.11c0-4.48-3.63-8.11-8.11-8.11c-4.48,0-8.11,3.63-8.11,8.11
			C490.42,934.97,494.05,938.6,498.53,938.6"/>
		<path class="st1" d="M498.53,965.64c4.48,0,8.11-3.63,8.11-8.11c0-4.48-3.63-8.11-8.11-8.11c-4.48,0-8.11,3.63-8.11,8.11
			C490.42,962.01,494.05,965.64,498.53,965.64"/>
		<path class="st1" d="M498.53,992.67c4.48,0,8.11-3.63,8.11-8.11c0-4.48-3.63-8.11-8.11-8.11c-4.48,0-8.11,3.63-8.11,8.11
			C490.42,989.04,494.05,992.67,498.53,992.67"/>
		<path class="st1" d="M498.53,1019.7c4.48,0,8.11-3.63,8.11-8.11c0-4.48-3.63-8.11-8.11-8.11c-4.48,0-8.11,3.63-8.11,8.11
			C490.42,1016.08,494.05,1019.7,498.53,1019.7"/>
		<path class="st1" d="M498.53,1046.74c4.48,0,8.11-3.63,8.11-8.11c0-4.48-3.63-8.11-8.11-8.11c-4.48,0-8.11,3.63-8.11,8.11
			C490.42,1043.11,494.05,1046.74,498.53,1046.74"/>
		<path class="st1" d="M498.53,1073.78c4.48,0,8.11-3.63,8.11-8.11c0-4.48-3.63-8.11-8.11-8.11c-4.48,0-8.11,3.63-8.11,8.11
			C490.42,1070.15,494.05,1073.78,498.53,1073.78"/>
		<path class="st1" d="M498.53,1100.81c4.48,0,8.11-3.63,8.11-8.11c0-4.48-3.63-8.11-8.11-8.11c-4.48,0-8.11,3.63-8.11,8.11
			C490.42,1097.18,494.05,1100.81,498.53,1100.81"/>
		<path class="st1" d="M525.56,289.78c4.48,0,8.11-3.63,8.11-8.11s-3.63-8.11-8.11-8.11c-4.48,0-8.11,3.63-8.11,8.11
			S521.08,289.78,525.56,289.78"/>
		<path class="st1" d="M525.56,316.81c4.48,0,8.11-3.63,8.11-8.11c0-4.48-3.63-8.11-8.11-8.11c-4.48,0-8.11,3.63-8.11,8.11
			C517.45,313.18,521.08,316.81,525.56,316.81"/>
		<path class="st1" d="M525.56,343.85c4.48,0,8.11-3.63,8.11-8.11c0-4.48-3.63-8.11-8.11-8.11c-4.48,0-8.11,3.63-8.11,8.11
			C517.45,340.22,521.08,343.85,525.56,343.85"/>
		<path class="st1" d="M525.56,370.88c4.48,0,8.11-3.63,8.11-8.11c0-4.48-3.63-8.11-8.11-8.11c-4.48,0-8.11,3.63-8.11,8.11
			C517.45,367.25,521.08,370.88,525.56,370.88"/>
		<path class="st1" d="M525.56,397.92c4.48,0,8.11-3.63,8.11-8.11c0-4.48-3.63-8.11-8.11-8.11c-4.48,0-8.11,3.63-8.11,8.11
			C517.45,394.29,521.08,397.92,525.56,397.92"/>
		<path class="st1" d="M525.56,424.95c4.48,0,8.11-3.63,8.11-8.11c0-4.48-3.63-8.11-8.11-8.11c-4.48,0-8.11,3.63-8.11,8.11
			C517.45,421.32,521.08,424.95,525.56,424.95"/>
		<path class="st1" d="M525.56,451.98c4.48,0,8.11-3.63,8.11-8.11c0-4.48-3.63-8.11-8.11-8.11c-4.48,0-8.11,3.63-8.11,8.11
			C517.45,448.35,521.08,451.98,525.56,451.98"/>
		<path class="st1" d="M525.56,479.02c4.48,0,8.11-3.63,8.11-8.11c0-4.48-3.63-8.11-8.11-8.11c-4.48,0-8.11,3.63-8.11,8.11
			C517.45,475.39,521.08,479.02,525.56,479.02"/>
		<path class="st1" d="M525.56,506.05c4.48,0,8.11-3.63,8.11-8.11c0-4.48-3.63-8.11-8.11-8.11c-4.48,0-8.11,3.63-8.11,8.11
			C517.45,502.42,521.08,506.05,525.56,506.05"/>
		<path class="st1" d="M525.56,533.09c4.48,0,8.11-3.63,8.11-8.11c0-4.48-3.63-8.11-8.11-8.11c-4.48,0-8.11,3.63-8.11,8.11
			C517.45,529.46,521.08,533.09,525.56,533.09"/>
		<path class="st1" d="M525.56,560.12c4.48,0,8.11-3.63,8.11-8.11c0-4.48-3.63-8.11-8.11-8.11c-4.48,0-8.11,3.63-8.11,8.11
			C517.45,556.49,521.08,560.12,525.56,560.12"/>
		<path class="st1" d="M525.56,587.16c4.48,0,8.11-3.63,8.11-8.11c0-4.48-3.63-8.11-8.11-8.11c-4.48,0-8.11,3.63-8.11,8.11
			C517.45,583.53,521.08,587.16,525.56,587.16"/>
		<path class="st1" d="M525.56,614.19c4.48,0,8.11-3.63,8.11-8.11c0-4.48-3.63-8.11-8.11-8.11c-4.48,0-8.11,3.63-8.11,8.11
			C517.45,610.56,521.08,614.19,525.56,614.19"/>
		<path class="st1" d="M525.56,641.22c4.48,0,8.11-3.63,8.11-8.11c0-4.48-3.63-8.11-8.11-8.11c-4.48,0-8.11,3.63-8.11,8.11
			C517.45,637.59,521.08,641.22,525.56,641.22"/>
		<path class="st1" d="M525.56,668.26c4.48,0,8.11-3.63,8.11-8.11c0-4.48-3.63-8.11-8.11-8.11c-4.48,0-8.11,3.63-8.11,8.11
			C517.45,664.63,521.08,668.26,525.56,668.26"/>
		<path class="st1" d="M525.56,695.29c4.48,0,8.11-3.63,8.11-8.11c0-4.48-3.63-8.11-8.11-8.11c-4.48,0-8.11,3.63-8.11,8.11
			C517.45,691.66,521.08,695.29,525.56,695.29"/>
		<path class="st1" d="M525.56,722.33c4.48,0,8.11-3.63,8.11-8.11c0-4.48-3.63-8.11-8.11-8.11c-4.48,0-8.11,3.63-8.11,8.11
			C517.45,718.7,521.08,722.33,525.56,722.33"/>
		<path class="st1" d="M525.56,749.36c4.48,0,8.11-3.63,8.11-8.11c0-4.48-3.63-8.11-8.11-8.11c-4.48,0-8.11,3.63-8.11,8.11
			C517.45,745.73,521.08,749.36,525.56,749.36"/>
		<path class="st1" d="M525.56,776.4c4.48,0,8.11-3.63,8.11-8.11c0-4.48-3.63-8.11-8.11-8.11c-4.48,0-8.11,3.63-8.11,8.11
			C517.45,772.77,521.08,776.4,525.56,776.4"/>
		<path class="st1" d="M525.56,803.43c4.48,0,8.11-3.63,8.11-8.11c0-4.48-3.63-8.11-8.11-8.11c-4.48,0-8.11,3.63-8.11,8.11
			C517.45,799.8,521.08,803.43,525.56,803.43"/>
		<path class="st1" d="M525.56,830.46c4.48,0,8.11-3.63,8.11-8.11c0-4.48-3.63-8.11-8.11-8.11c-4.48,0-8.11,3.63-8.11,8.11
			C517.45,826.83,521.08,830.46,525.56,830.46"/>
		<path class="st1" d="M525.56,857.5c4.48,0,8.11-3.63,8.11-8.11c0-4.48-3.63-8.11-8.11-8.11c-4.48,0-8.11,3.63-8.11,8.11
			C517.45,853.87,521.08,857.5,525.56,857.5"/>
		<path class="st1" d="M525.56,884.53c4.48,0,8.11-3.63,8.11-8.11c0-4.48-3.63-8.11-8.11-8.11c-4.48,0-8.11,3.63-8.11,8.11
			C517.45,880.91,521.08,884.53,525.56,884.53"/>
		<path class="st1" d="M525.56,911.57c4.48,0,8.11-3.63,8.11-8.11c0-4.48-3.63-8.11-8.11-8.11c-4.48,0-8.11,3.63-8.11,8.11
			C517.45,907.94,521.08,911.57,525.56,911.57"/>
		<path class="st1" d="M525.56,938.6c4.48,0,8.11-3.63,8.11-8.11c0-4.48-3.63-8.11-8.11-8.11c-4.48,0-8.11,3.63-8.11,8.11
			C517.45,934.97,521.08,938.6,525.56,938.6"/>
		<path class="st1" d="M525.56,965.64c4.48,0,8.11-3.63,8.11-8.11c0-4.48-3.63-8.11-8.11-8.11c-4.48,0-8.11,3.63-8.11,8.11
			C517.45,962.01,521.08,965.64,525.56,965.64"/>
		<path class="st1" d="M525.56,992.67c4.48,0,8.11-3.63,8.11-8.11c0-4.48-3.63-8.11-8.11-8.11c-4.48,0-8.11,3.63-8.11,8.11
			C517.45,989.04,521.08,992.67,525.56,992.67"/>
		<path class="st1" d="M525.56,1019.7c4.48,0,8.11-3.63,8.11-8.11c0-4.48-3.63-8.11-8.11-8.11c-4.48,0-8.11,3.63-8.11,8.11
			C517.45,1016.08,521.08,1019.7,525.56,1019.7"/>
		<path class="st1" d="M525.56,1046.74c4.48,0,8.11-3.63,8.11-8.11c0-4.48-3.63-8.11-8.11-8.11c-4.48,0-8.11,3.63-8.11,8.11
			C517.45,1043.11,521.08,1046.74,525.56,1046.74"/>
		<path class="st1" d="M525.56,1073.78c4.48,0,8.11-3.63,8.11-8.11c0-4.48-3.63-8.11-8.11-8.11c-4.48,0-8.11,3.63-8.11,8.11
			C517.45,1070.15,521.08,1073.78,525.56,1073.78"/>
		<path class="st1" d="M552.6,289.78c4.48,0,8.11-3.63,8.11-8.11s-3.63-8.11-8.11-8.11c-4.48,0-8.11,3.63-8.11,8.11
			S548.12,289.78,552.6,289.78"/>
		<path class="st1" d="M552.6,316.81c4.48,0,8.11-3.63,8.11-8.11c0-4.48-3.63-8.11-8.11-8.11c-4.48,0-8.11,3.63-8.11,8.11
			C544.49,313.18,548.12,316.81,552.6,316.81"/>
		<path class="st1" d="M552.6,343.85c4.48,0,8.11-3.63,8.11-8.11c0-4.48-3.63-8.11-8.11-8.11c-4.48,0-8.11,3.63-8.11,8.11
			C544.49,340.22,548.12,343.85,552.6,343.85"/>
		<path class="st1" d="M552.6,370.88c4.48,0,8.11-3.63,8.11-8.11c0-4.48-3.63-8.11-8.11-8.11c-4.48,0-8.11,3.63-8.11,8.11
			C544.49,367.25,548.12,370.88,552.6,370.88"/>
		<path class="st1" d="M552.6,397.92c4.48,0,8.11-3.63,8.11-8.11c0-4.48-3.63-8.11-8.11-8.11c-4.48,0-8.11,3.63-8.11,8.11
			C544.49,394.29,548.12,397.92,552.6,397.92"/>
		<path class="st1" d="M552.6,424.95c4.48,0,8.11-3.63,8.11-8.11c0-4.48-3.63-8.11-8.11-8.11c-4.48,0-8.11,3.63-8.11,8.11
			C544.49,421.32,548.12,424.95,552.6,424.95"/>
		<path class="st1" d="M552.6,451.98c4.48,0,8.11-3.63,8.11-8.11c0-4.48-3.63-8.11-8.11-8.11c-4.48,0-8.11,3.63-8.11,8.11
			C544.49,448.35,548.12,451.98,552.6,451.98"/>
		<path class="st1" d="M552.6,479.02c4.48,0,8.11-3.63,8.11-8.11c0-4.48-3.63-8.11-8.11-8.11c-4.48,0-8.11,3.63-8.11,8.11
			C544.49,475.39,548.12,479.02,552.6,479.02"/>
		<path class="st1" d="M552.6,506.05c4.48,0,8.11-3.63,8.11-8.11c0-4.48-3.63-8.11-8.11-8.11c-4.48,0-8.11,3.63-8.11,8.11
			C544.49,502.42,548.12,506.05,552.6,506.05"/>
		<path class="st1" d="M552.6,533.09c4.48,0,8.11-3.63,8.11-8.11c0-4.48-3.63-8.11-8.11-8.11c-4.48,0-8.11,3.63-8.11,8.11
			C544.49,529.46,548.12,533.09,552.6,533.09"/>
		<path class="st1" d="M552.6,560.12c4.48,0,8.11-3.63,8.11-8.11c0-4.48-3.63-8.11-8.11-8.11c-4.48,0-8.11,3.63-8.11,8.11
			C544.49,556.49,548.12,560.12,552.6,560.12"/>
		<path class="st1" d="M552.6,587.16c4.48,0,8.11-3.63,8.11-8.11c0-4.48-3.63-8.11-8.11-8.11c-4.48,0-8.11,3.63-8.11,8.11
			C544.49,583.53,548.12,587.16,552.6,587.16"/>
		<path class="st1" d="M552.6,614.19c4.48,0,8.11-3.63,8.11-8.11c0-4.48-3.63-8.11-8.11-8.11c-4.48,0-8.11,3.63-8.11,8.11
			C544.49,610.56,548.12,614.19,552.6,614.19"/>
		<path class="st1" d="M552.6,641.22c4.48,0,8.11-3.63,8.11-8.11c0-4.48-3.63-8.11-8.11-8.11c-4.48,0-8.11,3.63-8.11,8.11
			C544.49,637.59,548.12,641.22,552.6,641.22"/>
		<path class="st1" d="M552.6,668.26c4.48,0,8.11-3.63,8.11-8.11c0-4.48-3.63-8.11-8.11-8.11c-4.48,0-8.11,3.63-8.11,8.11
			C544.49,664.63,548.12,668.26,552.6,668.26"/>
		<path class="st1" d="M552.6,695.29c4.48,0,8.11-3.63,8.11-8.11c0-4.48-3.63-8.11-8.11-8.11c-4.48,0-8.11,3.63-8.11,8.11
			C544.49,691.66,548.12,695.29,552.6,695.29"/>
		<path class="st1" d="M552.6,722.33c4.48,0,8.11-3.63,8.11-8.11c0-4.48-3.63-8.11-8.11-8.11c-4.48,0-8.11,3.63-8.11,8.11
			C544.49,718.7,548.12,722.33,552.6,722.33"/>
		<path class="st1" d="M552.6,749.36c4.48,0,8.11-3.63,8.11-8.11c0-4.48-3.63-8.11-8.11-8.11c-4.48,0-8.11,3.63-8.11,8.11
			C544.49,745.73,548.12,749.36,552.6,749.36"/>
		<path class="st1" d="M552.6,776.4c4.48,0,8.11-3.63,8.11-8.11c0-4.48-3.63-8.11-8.11-8.11c-4.48,0-8.11,3.63-8.11,8.11
			C544.49,772.77,548.12,776.4,552.6,776.4"/>
		<path class="st1" d="M552.6,803.43c4.48,0,8.11-3.63,8.11-8.11c0-4.48-3.63-8.11-8.11-8.11c-4.48,0-8.11,3.63-8.11,8.11
			C544.49,799.8,548.12,803.43,552.6,803.43"/>
		<path class="st1" d="M552.6,830.46c4.48,0,8.11-3.63,8.11-8.11c0-4.48-3.63-8.11-8.11-8.11c-4.48,0-8.11,3.63-8.11,8.11
			C544.49,826.83,548.12,830.46,552.6,830.46"/>
		<path class="st1" d="M552.6,857.5c4.48,0,8.11-3.63,8.11-8.11c0-4.48-3.63-8.11-8.11-8.11c-4.48,0-8.11,3.63-8.11,8.11
			C544.49,853.87,548.12,857.5,552.6,857.5"/>
		<path class="st1" d="M552.6,884.53c4.48,0,8.11-3.63,8.11-8.11c0-4.48-3.63-8.11-8.11-8.11c-4.48,0-8.11,3.63-8.11,8.11
			C544.49,880.91,548.12,884.53,552.6,884.53"/>
		<path class="st1" d="M552.6,911.57c4.48,0,8.11-3.63,8.11-8.11c0-4.48-3.63-8.11-8.11-8.11c-4.48,0-8.11,3.63-8.11,8.11
			C544.49,907.94,548.12,911.57,552.6,911.57"/>
		<path class="st1" d="M552.6,938.6c4.48,0,8.11-3.63,8.11-8.11c0-4.48-3.63-8.11-8.11-8.11c-4.48,0-8.11,3.63-8.11,8.11
			C544.49,934.97,548.12,938.6,552.6,938.6"/>
		<path class="st1" d="M552.6,965.64c4.48,0,8.11-3.63,8.11-8.11c0-4.48-3.63-8.11-8.11-8.11c-4.48,0-8.11,3.63-8.11,8.11
			C544.49,962.01,548.12,965.64,552.6,965.64"/>
		<path class="st1" d="M552.6,992.67c4.48,0,8.11-3.63,8.11-8.11c0-4.48-3.63-8.11-8.11-8.11c-4.48,0-8.11,3.63-8.11,8.11
			C544.49,989.04,548.12,992.67,552.6,992.67"/>
		<path class="st1" d="M552.6,1019.7c4.48,0,8.11-3.63,8.11-8.11c0-4.48-3.63-8.11-8.11-8.11c-4.48,0-8.11,3.63-8.11,8.11
			C544.49,1016.08,548.12,1019.7,552.6,1019.7"/>
		<path class="st1" d="M579.63,316.81c4.48,0,8.11-3.63,8.11-8.11c0-4.48-3.63-8.11-8.11-8.11c-4.48,0-8.11,3.63-8.11,8.11
			C571.52,313.18,575.15,316.81,579.63,316.81"/>
		<path class="st1" d="M579.63,343.85c4.48,0,8.11-3.63,8.11-8.11c0-4.48-3.63-8.11-8.11-8.11c-4.48,0-8.11,3.63-8.11,8.11
			C571.52,340.22,575.15,343.85,579.63,343.85"/>
		<path class="st1" d="M579.63,370.88c4.48,0,8.11-3.63,8.11-8.11c0-4.48-3.63-8.11-8.11-8.11c-4.48,0-8.11,3.63-8.11,8.11
			C571.52,367.25,575.15,370.88,579.63,370.88"/>
		<path class="st1" d="M579.63,397.92c4.48,0,8.11-3.63,8.11-8.11c0-4.48-3.63-8.11-8.11-8.11c-4.48,0-8.11,3.63-8.11,8.11
			C571.52,394.29,575.15,397.92,579.63,397.92"/>
		<path class="st1" d="M579.63,424.95c4.48,0,8.11-3.63,8.11-8.11c0-4.48-3.63-8.11-8.11-8.11c-4.48,0-8.11,3.63-8.11,8.11
			C571.52,421.32,575.15,424.95,579.63,424.95"/>
		<path class="st1" d="M579.63,451.98c4.48,0,8.11-3.63,8.11-8.11c0-4.48-3.63-8.11-8.11-8.11c-4.48,0-8.11,3.63-8.11,8.11
			C571.52,448.35,575.15,451.98,579.63,451.98"/>
		<path class="st1" d="M579.63,479.02c4.48,0,8.11-3.63,8.11-8.11c0-4.48-3.63-8.11-8.11-8.11c-4.48,0-8.11,3.63-8.11,8.11
			C571.52,475.39,575.15,479.02,579.63,479.02"/>
		<path class="st1" d="M579.63,506.05c4.48,0,8.11-3.63,8.11-8.11c0-4.48-3.63-8.11-8.11-8.11c-4.48,0-8.11,3.63-8.11,8.11
			C571.52,502.42,575.15,506.05,579.63,506.05"/>
		<path class="st1" d="M579.63,533.09c4.48,0,8.11-3.63,8.11-8.11c0-4.48-3.63-8.11-8.11-8.11c-4.48,0-8.11,3.63-8.11,8.11
			C571.52,529.46,575.15,533.09,579.63,533.09"/>
		<path class="st1" d="M579.63,560.12c4.48,0,8.11-3.63,8.11-8.11c0-4.48-3.63-8.11-8.11-8.11c-4.48,0-8.11,3.63-8.11,8.11
			C571.52,556.49,575.15,560.12,579.63,560.12"/>
		<path class="st1" d="M579.63,587.16c4.48,0,8.11-3.63,8.11-8.11c0-4.48-3.63-8.11-8.11-8.11c-4.48,0-8.11,3.63-8.11,8.11
			C571.52,583.53,575.15,587.16,579.63,587.16"/>
		<path class="st1" d="M579.63,614.19c4.48,0,8.11-3.63,8.11-8.11c0-4.48-3.63-8.11-8.11-8.11c-4.48,0-8.11,3.63-8.11,8.11
			C571.52,610.56,575.15,614.19,579.63,614.19"/>
		<path class="st1" d="M579.63,641.22c4.48,0,8.11-3.63,8.11-8.11c0-4.48-3.63-8.11-8.11-8.11c-4.48,0-8.11,3.63-8.11,8.11
			C571.52,637.59,575.15,641.22,579.63,641.22"/>
		<path class="st1" d="M579.63,668.26c4.48,0,8.11-3.63,8.11-8.11c0-4.48-3.63-8.11-8.11-8.11c-4.48,0-8.11,3.63-8.11,8.11
			C571.52,664.63,575.15,668.26,579.63,668.26"/>
		<path class="st1" d="M579.63,695.29c4.48,0,8.11-3.63,8.11-8.11c0-4.48-3.63-8.11-8.11-8.11c-4.48,0-8.11,3.63-8.11,8.11
			C571.52,691.66,575.15,695.29,579.63,695.29"/>
		<path class="st1" d="M579.63,722.33c4.48,0,8.11-3.63,8.11-8.11c0-4.48-3.63-8.11-8.11-8.11c-4.48,0-8.11,3.63-8.11,8.11
			C571.52,718.7,575.15,722.33,579.63,722.33"/>
		<path class="st1" d="M579.63,749.36c4.48,0,8.11-3.63,8.11-8.11c0-4.48-3.63-8.11-8.11-8.11c-4.48,0-8.11,3.63-8.11,8.11
			C571.52,745.73,575.15,749.36,579.63,749.36"/>
		<path class="st1" d="M579.63,776.4c4.48,0,8.11-3.63,8.11-8.11c0-4.48-3.63-8.11-8.11-8.11c-4.48,0-8.11,3.63-8.11,8.11
			C571.52,772.77,575.15,776.4,579.63,776.4"/>
		<path class="st1" d="M579.63,803.43c4.48,0,8.11-3.63,8.11-8.11c0-4.48-3.63-8.11-8.11-8.11c-4.48,0-8.11,3.63-8.11,8.11
			C571.52,799.8,575.15,803.43,579.63,803.43"/>
		<path class="st1" d="M579.63,830.46c4.48,0,8.11-3.63,8.11-8.11c0-4.48-3.63-8.11-8.11-8.11c-4.48,0-8.11,3.63-8.11,8.11
			C571.52,826.83,575.15,830.46,579.63,830.46"/>
		<path class="st1" d="M579.63,857.5c4.48,0,8.11-3.63,8.11-8.11c0-4.48-3.63-8.11-8.11-8.11c-4.48,0-8.11,3.63-8.11,8.11
			C571.52,853.87,575.15,857.5,579.63,857.5"/>
		<path class="st1" d="M579.63,884.53c4.48,0,8.11-3.63,8.11-8.11c0-4.48-3.63-8.11-8.11-8.11c-4.48,0-8.11,3.63-8.11,8.11
			C571.52,880.91,575.15,884.53,579.63,884.53"/>
		<path class="st1" d="M579.63,911.57c4.48,0,8.11-3.63,8.11-8.11c0-4.48-3.63-8.11-8.11-8.11c-4.48,0-8.11,3.63-8.11,8.11
			C571.52,907.94,575.15,911.57,579.63,911.57"/>
		<path class="st1" d="M579.63,938.6c4.48,0,8.11-3.63,8.11-8.11c0-4.48-3.63-8.11-8.11-8.11c-4.48,0-8.11,3.63-8.11,8.11
			C571.52,934.97,575.15,938.6,579.63,938.6"/>
		<path class="st1" d="M579.63,965.64c4.48,0,8.11-3.63,8.11-8.11c0-4.48-3.63-8.11-8.11-8.11c-4.48,0-8.11,3.63-8.11,8.11
			C571.52,962.01,575.15,965.64,579.63,965.64"/>
		<path class="st1" d="M606.67,316.81c4.48,0,8.11-3.63,8.11-8.11c0-4.48-3.63-8.11-8.11-8.11c-4.48,0-8.11,3.63-8.11,8.11
			C598.56,313.18,602.19,316.81,606.67,316.81"/>
		<path class="st1" d="M606.67,343.85c4.48,0,8.11-3.63,8.11-8.11c0-4.48-3.63-8.11-8.11-8.11c-4.48,0-8.11,3.63-8.11,8.11
			C598.56,340.22,602.19,343.85,606.67,343.85"/>
		<path class="st1" d="M606.67,370.88c4.48,0,8.11-3.63,8.11-8.11c0-4.48-3.63-8.11-8.11-8.11c-4.48,0-8.11,3.63-8.11,8.11
			C598.56,367.25,602.19,370.88,606.67,370.88"/>
		<path class="st1" d="M606.67,397.92c4.48,0,8.11-3.63,8.11-8.11c0-4.48-3.63-8.11-8.11-8.11c-4.48,0-8.11,3.63-8.11,8.11
			C598.56,394.29,602.19,397.92,606.67,397.92"/>
		<path class="st1" d="M606.67,424.95c4.48,0,8.11-3.63,8.11-8.11c0-4.48-3.63-8.11-8.11-8.11c-4.48,0-8.11,3.63-8.11,8.11
			C598.56,421.32,602.19,424.95,606.67,424.95"/>
		<path class="st1" d="M606.67,451.98c4.48,0,8.11-3.63,8.11-8.11c0-4.48-3.63-8.11-8.11-8.11c-4.48,0-8.11,3.63-8.11,8.11
			C598.56,448.35,602.19,451.98,606.67,451.98"/>
		<path class="st1" d="M606.67,479.02c4.48,0,8.11-3.63,8.11-8.11c0-4.48-3.63-8.11-8.11-8.11c-4.48,0-8.11,3.63-8.11,8.11
			C598.56,475.39,602.19,479.02,606.67,479.02"/>
		<path class="st1" d="M606.67,506.05c4.48,0,8.11-3.63,8.11-8.11c0-4.48-3.63-8.11-8.11-8.11c-4.48,0-8.11,3.63-8.11,8.11
			C598.56,502.42,602.19,506.05,606.67,506.05"/>
		<path class="st1" d="M606.67,533.09c4.48,0,8.11-3.63,8.11-8.11c0-4.48-3.63-8.11-8.11-8.11c-4.48,0-8.11,3.63-8.11,8.11
			C598.56,529.46,602.19,533.09,606.67,533.09"/>
		<path class="st1" d="M606.67,560.12c4.48,0,8.11-3.63,8.11-8.11c0-4.48-3.63-8.11-8.11-8.11c-4.48,0-8.11,3.63-8.11,8.11
			C598.56,556.49,602.19,560.12,606.67,560.12"/>
		<path class="st1" d="M606.67,587.16c4.48,0,8.11-3.63,8.11-8.11c0-4.48-3.63-8.11-8.11-8.11c-4.48,0-8.11,3.63-8.11,8.11
			C598.56,583.53,602.19,587.16,606.67,587.16"/>
		<path class="st1" d="M606.67,614.19c4.48,0,8.11-3.63,8.11-8.11c0-4.48-3.63-8.11-8.11-8.11c-4.48,0-8.11,3.63-8.11,8.11
			C598.56,610.56,602.19,614.19,606.67,614.19"/>
		<path class="st1" d="M606.67,641.22c4.48,0,8.11-3.63,8.11-8.11c0-4.48-3.63-8.11-8.11-8.11c-4.48,0-8.11,3.63-8.11,8.11
			C598.56,637.59,602.19,641.22,606.67,641.22"/>
		<path class="st1" d="M606.67,668.26c4.48,0,8.11-3.63,8.11-8.11c0-4.48-3.63-8.11-8.11-8.11c-4.48,0-8.11,3.63-8.11,8.11
			C598.56,664.63,602.19,668.26,606.67,668.26"/>
		<path class="st1" d="M606.67,695.29c4.48,0,8.11-3.63,8.11-8.11c0-4.48-3.63-8.11-8.11-8.11c-4.48,0-8.11,3.63-8.11,8.11
			C598.56,691.66,602.19,695.29,606.67,695.29"/>
		<path class="st1" d="M606.67,722.33c4.48,0,8.11-3.63,8.11-8.11c0-4.48-3.63-8.11-8.11-8.11c-4.48,0-8.11,3.63-8.11,8.11
			C598.56,718.7,602.19,722.33,606.67,722.33"/>
		<path class="st1" d="M606.67,749.36c4.48,0,8.11-3.63,8.11-8.11c0-4.48-3.63-8.11-8.11-8.11c-4.48,0-8.11,3.63-8.11,8.11
			C598.56,745.73,602.19,749.36,606.67,749.36"/>
		<path class="st1" d="M606.67,776.4c4.48,0,8.11-3.63,8.11-8.11c0-4.48-3.63-8.11-8.11-8.11c-4.48,0-8.11,3.63-8.11,8.11
			C598.56,772.77,602.19,776.4,606.67,776.4"/>
		<path class="st1" d="M606.67,803.43c4.48,0,8.11-3.63,8.11-8.11c0-4.48-3.63-8.11-8.11-8.11c-4.48,0-8.11,3.63-8.11,8.11
			C598.56,799.8,602.19,803.43,606.67,803.43"/>
		<path class="st1" d="M606.67,830.46c4.48,0,8.11-3.63,8.11-8.11c0-4.48-3.63-8.11-8.11-8.11c-4.48,0-8.11,3.63-8.11,8.11
			C598.56,826.83,602.19,830.46,606.67,830.46"/>
		<path class="st1" d="M606.67,857.5c4.48,0,8.11-3.63,8.11-8.11c0-4.48-3.63-8.11-8.11-8.11c-4.48,0-8.11,3.63-8.11,8.11
			C598.56,853.87,602.19,857.5,606.67,857.5"/>
		<path class="st1" d="M606.67,884.53c4.48,0,8.11-3.63,8.11-8.11c0-4.48-3.63-8.11-8.11-8.11c-4.48,0-8.11,3.63-8.11,8.11
			C598.56,880.91,602.19,884.53,606.67,884.53"/>
		<path class="st1" d="M606.67,911.57c4.48,0,8.11-3.63,8.11-8.11c0-4.48-3.63-8.11-8.11-8.11c-4.48,0-8.11,3.63-8.11,8.11
			C598.56,907.94,602.19,911.57,606.67,911.57"/>
		<path class="st1" d="M606.67,938.6c4.48,0,8.11-3.63,8.11-8.11c0-4.48-3.63-8.11-8.11-8.11c-4.48,0-8.11,3.63-8.11,8.11
			C598.56,934.97,602.19,938.6,606.67,938.6"/>
		<path class="st1" d="M606.67,1062.57c4.48,0,8.11-3.63,8.11-8.11c0-4.48-3.63-8.11-8.11-8.11c-4.48,0-8.11,3.63-8.11,8.11
			C598.56,1058.94,602.19,1062.57,606.67,1062.57"/>
		<path class="st1" d="M633.7,316.81c4.48,0,8.11-3.63,8.11-8.11c0-4.48-3.63-8.11-8.11-8.11c-4.48,0-8.11,3.63-8.11,8.11
			C625.59,313.18,629.22,316.81,633.7,316.81"/>
		<path class="st1" d="M633.7,343.85c4.48,0,8.11-3.63,8.11-8.11c0-4.48-3.63-8.11-8.11-8.11c-4.48,0-8.11,3.63-8.11,8.11
			C625.59,340.22,629.22,343.85,633.7,343.85"/>
		<path class="st1" d="M633.7,370.88c4.48,0,8.11-3.63,8.11-8.11c0-4.48-3.63-8.11-8.11-8.11c-4.48,0-8.11,3.63-8.11,8.11
			C625.59,367.25,629.22,370.88,633.7,370.88"/>
		<path class="st1" d="M633.7,397.92c4.48,0,8.11-3.63,8.11-8.11c0-4.48-3.63-8.11-8.11-8.11c-4.48,0-8.11,3.63-8.11,8.11
			C625.59,394.29,629.22,397.92,633.7,397.92"/>
		<path class="st1" d="M633.7,424.95c4.48,0,8.11-3.63,8.11-8.11c0-4.48-3.63-8.11-8.11-8.11c-4.48,0-8.11,3.63-8.11,8.11
			C625.59,421.32,629.22,424.95,633.7,424.95"/>
		<path class="st1" d="M633.7,451.98c4.48,0,8.11-3.63,8.11-8.11c0-4.48-3.63-8.11-8.11-8.11c-4.48,0-8.11,3.63-8.11,8.11
			C625.59,448.35,629.22,451.98,633.7,451.98"/>
		<path class="st1" d="M633.7,479.02c4.48,0,8.11-3.63,8.11-8.11c0-4.48-3.63-8.11-8.11-8.11c-4.48,0-8.11,3.63-8.11,8.11
			C625.59,475.39,629.22,479.02,633.7,479.02"/>
		<path class="st1" d="M633.7,506.05c4.48,0,8.11-3.63,8.11-8.11c0-4.48-3.63-8.11-8.11-8.11c-4.48,0-8.11,3.63-8.11,8.11
			C625.59,502.42,629.22,506.05,633.7,506.05"/>
		<path class="st1" d="M633.7,533.09c4.48,0,8.11-3.63,8.11-8.11c0-4.48-3.63-8.11-8.11-8.11c-4.48,0-8.11,3.63-8.11,8.11
			C625.59,529.46,629.22,533.09,633.7,533.09"/>
		<path class="st1" d="M633.7,560.12c4.48,0,8.11-3.63,8.11-8.11c0-4.48-3.63-8.11-8.11-8.11c-4.48,0-8.11,3.63-8.11,8.11
			C625.59,556.49,629.22,560.12,633.7,560.12"/>
		<path class="st1" d="M633.7,587.16c4.48,0,8.11-3.63,8.11-8.11c0-4.48-3.63-8.11-8.11-8.11c-4.48,0-8.11,3.63-8.11,8.11
			C625.59,583.53,629.22,587.16,633.7,587.16"/>
		<path class="st1" d="M633.7,614.19c4.48,0,8.11-3.63,8.11-8.11c0-4.48-3.63-8.11-8.11-8.11c-4.48,0-8.11,3.63-8.11,8.11
			C625.59,610.56,629.22,614.19,633.7,614.19"/>
		<path class="st1" d="M633.7,641.22c4.48,0,8.11-3.63,8.11-8.11c0-4.48-3.63-8.11-8.11-8.11c-4.48,0-8.11,3.63-8.11,8.11
			C625.59,637.59,629.22,641.22,633.7,641.22"/>
		<path class="st1" d="M633.7,668.26c4.48,0,8.11-3.63,8.11-8.11c0-4.48-3.63-8.11-8.11-8.11c-4.48,0-8.11,3.63-8.11,8.11
			C625.59,664.63,629.22,668.26,633.7,668.26"/>
		<path class="st1" d="M633.7,695.29c4.48,0,8.11-3.63,8.11-8.11c0-4.48-3.63-8.11-8.11-8.11c-4.48,0-8.11,3.63-8.11,8.11
			C625.59,691.66,629.22,695.29,633.7,695.29"/>
		<path class="st1" d="M633.7,722.33c4.48,0,8.11-3.63,8.11-8.11c0-4.48-3.63-8.11-8.11-8.11c-4.48,0-8.11,3.63-8.11,8.11
			C625.59,718.7,629.22,722.33,633.7,722.33"/>
		<path class="st1" d="M633.7,749.36c4.48,0,8.11-3.63,8.11-8.11c0-4.48-3.63-8.11-8.11-8.11c-4.48,0-8.11,3.63-8.11,8.11
			C625.59,745.73,629.22,749.36,633.7,749.36"/>
		<path class="st1" d="M633.7,776.4c4.48,0,8.11-3.63,8.11-8.11c0-4.48-3.63-8.11-8.11-8.11c-4.48,0-8.11,3.63-8.11,8.11
			C625.59,772.77,629.22,776.4,633.7,776.4"/>
		<path class="st1" d="M633.7,803.43c4.48,0,8.11-3.63,8.11-8.11c0-4.48-3.63-8.11-8.11-8.11c-4.48,0-8.11,3.63-8.11,8.11
			C625.59,799.8,629.22,803.43,633.7,803.43"/>
		<path class="st1" d="M633.7,830.46c4.48,0,8.11-3.63,8.11-8.11c0-4.48-3.63-8.11-8.11-8.11c-4.48,0-8.11,3.63-8.11,8.11
			C625.59,826.83,629.22,830.46,633.7,830.46"/>
		<path class="st1" d="M633.7,857.5c4.48,0,8.11-3.63,8.11-8.11c0-4.48-3.63-8.11-8.11-8.11c-4.48,0-8.11,3.63-8.11,8.11
			C625.59,853.87,629.22,857.5,633.7,857.5"/>
		<path class="st1" d="M633.7,884.53c4.48,0,8.11-3.63,8.11-8.11c0-4.48-3.63-8.11-8.11-8.11c-4.48,0-8.11,3.63-8.11,8.11
			C625.59,880.91,629.22,884.53,633.7,884.53"/>
		<path class="st1" d="M633.7,911.57c4.48,0,8.11-3.63,8.11-8.11c0-4.48-3.63-8.11-8.11-8.11c-4.48,0-8.11,3.63-8.11,8.11
			C625.59,907.94,629.22,911.57,633.7,911.57"/>
		<path class="st1" d="M633.7,938.6c4.48,0,8.11-3.63,8.11-8.11c0-4.48-3.63-8.11-8.11-8.11c-4.48,0-8.11,3.63-8.11,8.11
			C625.59,934.97,629.22,938.6,633.7,938.6"/>
		<path class="st1" d="M633.7,1062.57c4.48,0,8.11-3.63,8.11-8.11c0-4.48-3.63-8.11-8.11-8.11c-4.48,0-8.11,3.63-8.11,8.11
			C625.59,1058.94,629.22,1062.57,633.7,1062.57"/>
		<path class="st1" d="M660.73,343.85c4.48,0,8.11-3.63,8.11-8.11c0-4.48-3.63-8.11-8.11-8.11c-4.48,0-8.11,3.63-8.11,8.11
			C652.62,340.22,656.25,343.85,660.73,343.85"/>
		<path class="st1" d="M660.73,370.88c4.48,0,8.11-3.63,8.11-8.11c0-4.48-3.63-8.11-8.11-8.11c-4.48,0-8.11,3.63-8.11,8.11
			C652.62,367.25,656.25,370.88,660.73,370.88"/>
		<path class="st1" d="M660.73,397.92c4.48,0,8.11-3.63,8.11-8.11c0-4.48-3.63-8.11-8.11-8.11c-4.48,0-8.11,3.63-8.11,8.11
			C652.62,394.29,656.25,397.92,660.73,397.92"/>
		<path class="st1" d="M660.73,424.95c4.48,0,8.11-3.63,8.11-8.11c0-4.48-3.63-8.11-8.11-8.11c-4.48,0-8.11,3.63-8.11,8.11
			C652.62,421.32,656.25,424.95,660.73,424.95"/>
		<path class="st1" d="M660.73,451.98c4.48,0,8.11-3.63,8.11-8.11c0-4.48-3.63-8.11-8.11-8.11c-4.48,0-8.11,3.63-8.11,8.11
			C652.62,448.35,656.25,451.98,660.73,451.98"/>
		<path class="st1" d="M660.73,479.02c4.48,0,8.11-3.63,8.11-8.11c0-4.48-3.63-8.11-8.11-8.11c-4.48,0-8.11,3.63-8.11,8.11
			C652.62,475.39,656.25,479.02,660.73,479.02"/>
		<path class="st1" d="M660.73,506.05c4.48,0,8.11-3.63,8.11-8.11c0-4.48-3.63-8.11-8.11-8.11c-4.48,0-8.11,3.63-8.11,8.11
			C652.62,502.42,656.25,506.05,660.73,506.05"/>
		<path class="st1" d="M660.73,533.09c4.48,0,8.11-3.63,8.11-8.11c0-4.48-3.63-8.11-8.11-8.11c-4.48,0-8.11,3.63-8.11,8.11
			C652.62,529.46,656.25,533.09,660.73,533.09"/>
		<path class="st1" d="M660.73,560.12c4.48,0,8.11-3.63,8.11-8.11c0-4.48-3.63-8.11-8.11-8.11c-4.48,0-8.11,3.63-8.11,8.11
			C652.62,556.49,656.25,560.12,660.73,560.12"/>
		<path class="st1" d="M660.73,587.16c4.48,0,8.11-3.63,8.11-8.11c0-4.48-3.63-8.11-8.11-8.11c-4.48,0-8.11,3.63-8.11,8.11
			C652.62,583.53,656.25,587.16,660.73,587.16"/>
		<path class="st1" d="M660.73,614.19c4.48,0,8.11-3.63,8.11-8.11c0-4.48-3.63-8.11-8.11-8.11c-4.48,0-8.11,3.63-8.11,8.11
			C652.62,610.56,656.25,614.19,660.73,614.19"/>
		<path class="st1" d="M660.73,641.22c4.48,0,8.11-3.63,8.11-8.11c0-4.48-3.63-8.11-8.11-8.11c-4.48,0-8.11,3.63-8.11,8.11
			C652.62,637.59,656.25,641.22,660.73,641.22"/>
		<path class="st1" d="M660.73,668.26c4.48,0,8.11-3.63,8.11-8.11c0-4.48-3.63-8.11-8.11-8.11c-4.48,0-8.11,3.63-8.11,8.11
			C652.62,664.63,656.25,668.26,660.73,668.26"/>
		<path class="st1" d="M660.73,695.29c4.48,0,8.11-3.63,8.11-8.11c0-4.48-3.63-8.11-8.11-8.11c-4.48,0-8.11,3.63-8.11,8.11
			C652.62,691.66,656.25,695.29,660.73,695.29"/>
		<path class="st1" d="M660.73,722.33c4.48,0,8.11-3.63,8.11-8.11c0-4.48-3.63-8.11-8.11-8.11c-4.48,0-8.11,3.63-8.11,8.11
			C652.62,718.7,656.25,722.33,660.73,722.33"/>
		<path class="st1" d="M660.73,749.36c4.48,0,8.11-3.63,8.11-8.11c0-4.48-3.63-8.11-8.11-8.11c-4.48,0-8.11,3.63-8.11,8.11
			C652.62,745.73,656.25,749.36,660.73,749.36"/>
		<path class="st1" d="M660.73,776.4c4.48,0,8.11-3.63,8.11-8.11c0-4.48-3.63-8.11-8.11-8.11c-4.48,0-8.11,3.63-8.11,8.11
			C652.62,772.77,656.25,776.4,660.73,776.4"/>
		<path class="st1" d="M660.73,803.43c4.48,0,8.11-3.63,8.11-8.11c0-4.48-3.63-8.11-8.11-8.11c-4.48,0-8.11,3.63-8.11,8.11
			C652.62,799.8,656.25,803.43,660.73,803.43"/>
		<path class="st1" d="M660.73,830.46c4.48,0,8.11-3.63,8.11-8.11c0-4.48-3.63-8.11-8.11-8.11c-4.48,0-8.11,3.63-8.11,8.11
			C652.62,826.83,656.25,830.46,660.73,830.46"/>
		<path class="st1" d="M660.73,857.5c4.48,0,8.11-3.63,8.11-8.11c0-4.48-3.63-8.11-8.11-8.11c-4.48,0-8.11,3.63-8.11,8.11
			C652.62,853.87,656.25,857.5,660.73,857.5"/>
		<path class="st1" d="M660.73,884.53c4.48,0,8.11-3.63,8.11-8.11c0-4.48-3.63-8.11-8.11-8.11c-4.48,0-8.11,3.63-8.11,8.11
			C652.62,880.91,656.25,884.53,660.73,884.53"/>
		<path class="st1" d="M660.73,911.57c4.48,0,8.11-3.63,8.11-8.11c0-4.48-3.63-8.11-8.11-8.11c-4.48,0-8.11,3.63-8.11,8.11
			C652.62,907.94,656.25,911.57,660.73,911.57"/>
		<path class="st1" d="M687.77,343.85c4.48,0,8.11-3.63,8.11-8.11c0-4.48-3.63-8.11-8.11-8.11c-4.48,0-8.11,3.63-8.11,8.11
			C679.66,340.22,683.29,343.85,687.77,343.85"/>
		<path class="st1" d="M687.77,370.88c4.48,0,8.11-3.63,8.11-8.11c0-4.48-3.63-8.11-8.11-8.11c-4.48,0-8.11,3.63-8.11,8.11
			C679.66,367.25,683.29,370.88,687.77,370.88"/>
		<path class="st1" d="M687.77,397.92c4.48,0,8.11-3.63,8.11-8.11c0-4.48-3.63-8.11-8.11-8.11c-4.48,0-8.11,3.63-8.11,8.11
			C679.66,394.29,683.29,397.92,687.77,397.92"/>
		<path class="st1" d="M687.77,424.95c4.48,0,8.11-3.63,8.11-8.11c0-4.48-3.63-8.11-8.11-8.11c-4.48,0-8.11,3.63-8.11,8.11
			C679.66,421.32,683.29,424.95,687.77,424.95"/>
		<path class="st1" d="M687.77,451.98c4.48,0,8.11-3.63,8.11-8.11c0-4.48-3.63-8.11-8.11-8.11c-4.48,0-8.11,3.63-8.11,8.11
			C679.66,448.35,683.29,451.98,687.77,451.98"/>
		<path class="st1" d="M687.77,479.02c4.48,0,8.11-3.63,8.11-8.11c0-4.48-3.63-8.11-8.11-8.11c-4.48,0-8.11,3.63-8.11,8.11
			C679.66,475.39,683.29,479.02,687.77,479.02"/>
		<path class="st1" d="M687.77,506.05c4.48,0,8.11-3.63,8.11-8.11c0-4.48-3.63-8.11-8.11-8.11c-4.48,0-8.11,3.63-8.11,8.11
			C679.66,502.42,683.29,506.05,687.77,506.05"/>
		<path class="st1" d="M687.77,533.09c4.48,0,8.11-3.63,8.11-8.11c0-4.48-3.63-8.11-8.11-8.11c-4.48,0-8.11,3.63-8.11,8.11
			C679.66,529.46,683.29,533.09,687.77,533.09"/>
		<path class="st1" d="M687.77,560.12c4.48,0,8.11-3.63,8.11-8.11c0-4.48-3.63-8.11-8.11-8.11c-4.48,0-8.11,3.63-8.11,8.11
			C679.66,556.49,683.29,560.12,687.77,560.12"/>
		<path class="st1" d="M687.77,587.16c4.48,0,8.11-3.63,8.11-8.11c0-4.48-3.63-8.11-8.11-8.11c-4.48,0-8.11,3.63-8.11,8.11
			C679.66,583.53,683.29,587.16,687.77,587.16"/>
		<path class="st1" d="M687.77,614.19c4.48,0,8.11-3.63,8.11-8.11c0-4.48-3.63-8.11-8.11-8.11c-4.48,0-8.11,3.63-8.11,8.11
			C679.66,610.56,683.29,614.19,687.77,614.19"/>
		<path class="st1" d="M687.77,641.22c4.48,0,8.11-3.63,8.11-8.11c0-4.48-3.63-8.11-8.11-8.11c-4.48,0-8.11,3.63-8.11,8.11
			C679.66,637.59,683.29,641.22,687.77,641.22"/>
		<path class="st1" d="M687.77,668.26c4.48,0,8.11-3.63,8.11-8.11c0-4.48-3.63-8.11-8.11-8.11c-4.48,0-8.11,3.63-8.11,8.11
			C679.66,664.63,683.29,668.26,687.77,668.26"/>
		<path class="st1" d="M687.77,695.29c4.48,0,8.11-3.63,8.11-8.11c0-4.48-3.63-8.11-8.11-8.11c-4.48,0-8.11,3.63-8.11,8.11
			C679.66,691.66,683.29,695.29,687.77,695.29"/>
		<path class="st1" d="M687.77,722.33c4.48,0,8.11-3.63,8.11-8.11c0-4.48-3.63-8.11-8.11-8.11c-4.48,0-8.11,3.63-8.11,8.11
			C679.66,718.7,683.29,722.33,687.77,722.33"/>
		<path class="st1" d="M687.77,749.36c4.48,0,8.11-3.63,8.11-8.11c0-4.48-3.63-8.11-8.11-8.11c-4.48,0-8.11,3.63-8.11,8.11
			C679.66,745.73,683.29,749.36,687.77,749.36"/>
		<path class="st1" d="M687.77,776.4c4.48,0,8.11-3.63,8.11-8.11c0-4.48-3.63-8.11-8.11-8.11c-4.48,0-8.11,3.63-8.11,8.11
			C679.66,772.77,683.29,776.4,687.77,776.4"/>
		<path class="st1" d="M687.77,803.43c4.48,0,8.11-3.63,8.11-8.11c0-4.48-3.63-8.11-8.11-8.11c-4.48,0-8.11,3.63-8.11,8.11
			C679.66,799.8,683.29,803.43,687.77,803.43"/>
		<path class="st1" d="M687.77,830.46c4.48,0,8.11-3.63,8.11-8.11c0-4.48-3.63-8.11-8.11-8.11c-4.48,0-8.11,3.63-8.11,8.11
			C679.66,826.83,683.29,830.46,687.77,830.46"/>
		<path class="st1" d="M687.77,857.5c4.48,0,8.11-3.63,8.11-8.11c0-4.48-3.63-8.11-8.11-8.11c-4.48,0-8.11,3.63-8.11,8.11
			C679.66,853.87,683.29,857.5,687.77,857.5"/>
		<path class="st1" d="M687.77,884.53c4.48,0,8.11-3.63,8.11-8.11c0-4.48-3.63-8.11-8.11-8.11c-4.48,0-8.11,3.63-8.11,8.11
			C679.66,880.91,683.29,884.53,687.77,884.53"/>
		<path class="st1" d="M714.8,370.88c4.48,0,8.11-3.63,8.11-8.11c0-4.48-3.63-8.11-8.11-8.11c-4.48,0-8.11,3.63-8.11,8.11
			C706.69,367.25,710.32,370.88,714.8,370.88"/>
		<path class="st1" d="M714.8,397.92c4.48,0,8.11-3.63,8.11-8.11c0-4.48-3.63-8.11-8.11-8.11c-4.48,0-8.11,3.63-8.11,8.11
			C706.69,394.29,710.32,397.92,714.8,397.92"/>
		<path class="st1" d="M714.8,424.95c4.48,0,8.11-3.63,8.11-8.11c0-4.48-3.63-8.11-8.11-8.11c-4.48,0-8.11,3.63-8.11,8.11
			C706.69,421.32,710.32,424.95,714.8,424.95"/>
		<path class="st1" d="M714.8,451.98c4.48,0,8.11-3.63,8.11-8.11c0-4.48-3.63-8.11-8.11-8.11c-4.48,0-8.11,3.63-8.11,8.11
			C706.69,448.35,710.32,451.98,714.8,451.98"/>
		<path class="st1" d="M714.8,479.02c4.48,0,8.11-3.63,8.11-8.11c0-4.48-3.63-8.11-8.11-8.11c-4.48,0-8.11,3.63-8.11,8.11
			C706.69,475.39,710.32,479.02,714.8,479.02"/>
		<path class="st1" d="M714.8,506.05c4.48,0,8.11-3.63,8.11-8.11c0-4.48-3.63-8.11-8.11-8.11c-4.48,0-8.11,3.63-8.11,8.11
			C706.69,502.42,710.32,506.05,714.8,506.05"/>
		<path class="st1" d="M714.8,533.09c4.48,0,8.11-3.63,8.11-8.11c0-4.48-3.63-8.11-8.11-8.11c-4.48,0-8.11,3.63-8.11,8.11
			C706.69,529.46,710.32,533.09,714.8,533.09"/>
		<path class="st1" d="M714.8,560.12c4.48,0,8.11-3.63,8.11-8.11c0-4.48-3.63-8.11-8.11-8.11c-4.48,0-8.11,3.63-8.11,8.11
			C706.69,556.49,710.32,560.12,714.8,560.12"/>
		<path class="st1" d="M714.8,587.16c4.48,0,8.11-3.63,8.11-8.11c0-4.48-3.63-8.11-8.11-8.11c-4.48,0-8.11,3.63-8.11,8.11
			C706.69,583.53,710.32,587.16,714.8,587.16"/>
		<path class="st1" d="M714.8,614.19c4.48,0,8.11-3.63,8.11-8.11c0-4.48-3.63-8.11-8.11-8.11c-4.48,0-8.11,3.63-8.11,8.11
			C706.69,610.56,710.32,614.19,714.8,614.19"/>
		<path class="st1" d="M714.8,641.22c4.48,0,8.11-3.63,8.11-8.11c0-4.48-3.63-8.11-8.11-8.11c-4.48,0-8.11,3.63-8.11,8.11
			C706.69,637.59,710.32,641.22,714.8,641.22"/>
		<path class="st1" d="M714.8,668.26c4.48,0,8.11-3.63,8.11-8.11c0-4.48-3.63-8.11-8.11-8.11c-4.48,0-8.11,3.63-8.11,8.11
			C706.69,664.63,710.32,668.26,714.8,668.26"/>
		<path class="st1" d="M714.8,695.29c4.48,0,8.11-3.63,8.11-8.11c0-4.48-3.63-8.11-8.11-8.11c-4.48,0-8.11,3.63-8.11,8.11
			C706.69,691.66,710.32,695.29,714.8,695.29"/>
		<path class="st1" d="M714.8,722.33c4.48,0,8.11-3.63,8.11-8.11c0-4.48-3.63-8.11-8.11-8.11c-4.48,0-8.11,3.63-8.11,8.11
			C706.69,718.7,710.32,722.33,714.8,722.33"/>
		<path class="st1" d="M714.8,749.36c4.48,0,8.11-3.63,8.11-8.11c0-4.48-3.63-8.11-8.11-8.11c-4.48,0-8.11,3.63-8.11,8.11
			C706.69,745.73,710.32,749.36,714.8,749.36"/>
		<path class="st1" d="M714.8,776.4c4.48,0,8.11-3.63,8.11-8.11c0-4.48-3.63-8.11-8.11-8.11c-4.48,0-8.11,3.63-8.11,8.11
			C706.69,772.77,710.32,776.4,714.8,776.4"/>
		<path class="st1" d="M714.8,803.43c4.48,0,8.11-3.63,8.11-8.11c0-4.48-3.63-8.11-8.11-8.11c-4.48,0-8.11,3.63-8.11,8.11
			C706.69,799.8,710.32,803.43,714.8,803.43"/>
		<path class="st1" d="M714.8,830.46c4.48,0,8.11-3.63,8.11-8.11c0-4.48-3.63-8.11-8.11-8.11c-4.48,0-8.11,3.63-8.11,8.11
			C706.69,826.83,710.32,830.46,714.8,830.46"/>
		<path class="st1" d="M714.8,857.5c4.48,0,8.11-3.63,8.11-8.11c0-4.48-3.63-8.11-8.11-8.11c-4.48,0-8.11,3.63-8.11,8.11
			C706.69,853.87,710.32,857.5,714.8,857.5"/>
		<path class="st1" d="M741.84,370.88c4.48,0,8.11-3.63,8.11-8.11c0-4.48-3.63-8.11-8.11-8.11c-4.48,0-8.11,3.63-8.11,8.11
			C733.73,367.25,737.36,370.88,741.84,370.88"/>
		<path class="st1" d="M741.84,397.92c4.48,0,8.11-3.63,8.11-8.11c0-4.48-3.63-8.11-8.11-8.11c-4.48,0-8.11,3.63-8.11,8.11
			C733.73,394.29,737.36,397.92,741.84,397.92"/>
		<path class="st1" d="M741.84,424.95c4.48,0,8.11-3.63,8.11-8.11c0-4.48-3.63-8.11-8.11-8.11c-4.48,0-8.11,3.63-8.11,8.11
			C733.73,421.32,737.36,424.95,741.84,424.95"/>
		<path class="st1" d="M741.84,451.98c4.48,0,8.11-3.63,8.11-8.11c0-4.48-3.63-8.11-8.11-8.11c-4.48,0-8.11,3.63-8.11,8.11
			C733.73,448.35,737.36,451.98,741.84,451.98"/>
		<path class="st1" d="M741.84,479.02c4.48,0,8.11-3.63,8.11-8.11c0-4.48-3.63-8.11-8.11-8.11c-4.48,0-8.11,3.63-8.11,8.11
			C733.73,475.39,737.36,479.02,741.84,479.02"/>
		<path class="st1" d="M741.84,506.05c4.48,0,8.11-3.63,8.11-8.11c0-4.48-3.63-8.11-8.11-8.11c-4.48,0-8.11,3.63-8.11,8.11
			C733.73,502.42,737.36,506.05,741.84,506.05"/>
		<path class="st1" d="M741.84,533.09c4.48,0,8.11-3.63,8.11-8.11c0-4.48-3.63-8.11-8.11-8.11c-4.48,0-8.11,3.63-8.11,8.11
			C733.73,529.46,737.36,533.09,741.84,533.09"/>
		<path class="st1" d="M741.84,560.12c4.48,0,8.11-3.63,8.11-8.11c0-4.48-3.63-8.11-8.11-8.11c-4.48,0-8.11,3.63-8.11,8.11
			C733.73,556.49,737.36,560.12,741.84,560.12"/>
		<path class="st1" d="M741.84,587.16c4.48,0,8.11-3.63,8.11-8.11c0-4.48-3.63-8.11-8.11-8.11c-4.48,0-8.11,3.63-8.11,8.11
			C733.73,583.53,737.36,587.16,741.84,587.16"/>
		<path class="st1" d="M741.84,614.19c4.48,0,8.11-3.63,8.11-8.11c0-4.48-3.63-8.11-8.11-8.11c-4.48,0-8.11,3.63-8.11,8.11
			C733.73,610.56,737.36,614.19,741.84,614.19"/>
		<path class="st1" d="M741.84,641.22c4.48,0,8.11-3.63,8.11-8.11c0-4.48-3.63-8.11-8.11-8.11c-4.48,0-8.11,3.63-8.11,8.11
			C733.73,637.59,737.36,641.22,741.84,641.22"/>
		<path class="st1" d="M741.84,668.26c4.48,0,8.11-3.63,8.11-8.11c0-4.48-3.63-8.11-8.11-8.11c-4.48,0-8.11,3.63-8.11,8.11
			C733.73,664.63,737.36,668.26,741.84,668.26"/>
		<path class="st1" d="M741.84,695.29c4.48,0,8.11-3.63,8.11-8.11c0-4.48-3.63-8.11-8.11-8.11c-4.48,0-8.11,3.63-8.11,8.11
			C733.73,691.66,737.36,695.29,741.84,695.29"/>
		<path class="st1" d="M741.84,722.33c4.48,0,8.11-3.63,8.11-8.11c0-4.48-3.63-8.11-8.11-8.11c-4.48,0-8.11,3.63-8.11,8.11
			C733.73,718.7,737.36,722.33,741.84,722.33"/>
		<path class="st1" d="M741.84,749.36c4.48,0,8.11-3.63,8.11-8.11c0-4.48-3.63-8.11-8.11-8.11c-4.48,0-8.11,3.63-8.11,8.11
			C733.73,745.73,737.36,749.36,741.84,749.36"/>
		<path class="st1" d="M741.84,776.4c4.48,0,8.11-3.63,8.11-8.11c0-4.48-3.63-8.11-8.11-8.11c-4.48,0-8.11,3.63-8.11,8.11
			C733.73,772.77,737.36,776.4,741.84,776.4"/>
		<path class="st1" d="M741.84,803.43c4.48,0,8.11-3.63,8.11-8.11c0-4.48-3.63-8.11-8.11-8.11c-4.48,0-8.11,3.63-8.11,8.11
			C733.73,799.8,737.36,803.43,741.84,803.43"/>
		<path class="st1" d="M741.84,830.46c4.48,0,8.11-3.63,8.11-8.11c0-4.48-3.63-8.11-8.11-8.11c-4.48,0-8.11,3.63-8.11,8.11
			C733.73,826.83,737.36,830.46,741.84,830.46"/>
		<path class="st1" d="M768.87,397.92c4.48,0,8.11-3.63,8.11-8.11c0-4.48-3.63-8.11-8.11-8.11c-4.48,0-8.11,3.63-8.11,8.11
			C760.76,394.29,764.39,397.92,768.87,397.92"/>
		<path class="st1" d="M768.87,424.95c4.48,0,8.11-3.63,8.11-8.11c0-4.48-3.63-8.11-8.11-8.11c-4.48,0-8.11,3.63-8.11,8.11
			C760.76,421.32,764.39,424.95,768.87,424.95"/>
		<path class="st1" d="M768.87,451.98c4.48,0,8.11-3.63,8.11-8.11c0-4.48-3.63-8.11-8.11-8.11c-4.48,0-8.11,3.63-8.11,8.11
			C760.76,448.35,764.39,451.98,768.87,451.98"/>
		<path class="st1" d="M768.87,479.02c4.48,0,8.11-3.63,8.11-8.11c0-4.48-3.63-8.11-8.11-8.11c-4.48,0-8.11,3.63-8.11,8.11
			C760.76,475.39,764.39,479.02,768.87,479.02"/>
		<path class="st1" d="M768.87,506.05c4.48,0,8.11-3.63,8.11-8.11c0-4.48-3.63-8.11-8.11-8.11c-4.48,0-8.11,3.63-8.11,8.11
			C760.76,502.42,764.39,506.05,768.87,506.05"/>
		<path class="st1" d="M768.87,533.09c4.48,0,8.11-3.63,8.11-8.11c0-4.48-3.63-8.11-8.11-8.11c-4.48,0-8.11,3.63-8.11,8.11
			C760.76,529.46,764.39,533.09,768.87,533.09"/>
		<path class="st1" d="M768.87,560.12c4.48,0,8.11-3.63,8.11-8.11c0-4.48-3.63-8.11-8.11-8.11c-4.48,0-8.11,3.63-8.11,8.11
			C760.76,556.49,764.39,560.12,768.87,560.12"/>
		<path class="st1" d="M768.87,587.16c4.48,0,8.11-3.63,8.11-8.11c0-4.48-3.63-8.11-8.11-8.11c-4.48,0-8.11,3.63-8.11,8.11
			C760.76,583.53,764.39,587.16,768.87,587.16"/>
		<path class="st1" d="M768.87,614.19c4.48,0,8.11-3.63,8.11-8.11c0-4.48-3.63-8.11-8.11-8.11c-4.48,0-8.11,3.63-8.11,8.11
			C760.76,610.56,764.39,614.19,768.87,614.19"/>
		<path class="st1" d="M768.87,641.22c4.48,0,8.11-3.63,8.11-8.11c0-4.48-3.63-8.11-8.11-8.11c-4.48,0-8.11,3.63-8.11,8.11
			C760.76,637.59,764.39,641.22,768.87,641.22"/>
		<path class="st1" d="M768.87,668.26c4.48,0,8.11-3.63,8.11-8.11c0-4.48-3.63-8.11-8.11-8.11c-4.48,0-8.11,3.63-8.11,8.11
			C760.76,664.63,764.39,668.26,768.87,668.26"/>
		<path class="st1" d="M768.87,695.29c4.48,0,8.11-3.63,8.11-8.11c0-4.48-3.63-8.11-8.11-8.11c-4.48,0-8.11,3.63-8.11,8.11
			C760.76,691.66,764.39,695.29,768.87,695.29"/>
		<path class="st1" d="M768.87,722.33c4.48,0,8.11-3.63,8.11-8.11c0-4.48-3.63-8.11-8.11-8.11c-4.48,0-8.11,3.63-8.11,8.11
			C760.76,718.7,764.39,722.33,768.87,722.33"/>
		<path class="st1" d="M768.87,749.36c4.48,0,8.11-3.63,8.11-8.11c0-4.48-3.63-8.11-8.11-8.11c-4.48,0-8.11,3.63-8.11,8.11
			C760.76,745.73,764.39,749.36,768.87,749.36"/>
		<path class="st1" d="M768.87,776.4c4.48,0,8.11-3.63,8.11-8.11c0-4.48-3.63-8.11-8.11-8.11c-4.48,0-8.11,3.63-8.11,8.11
			C760.76,772.77,764.39,776.4,768.87,776.4"/>
		<path class="st1" d="M768.87,803.43c4.48,0,8.11-3.63,8.11-8.11c0-4.48-3.63-8.11-8.11-8.11c-4.48,0-8.11,3.63-8.11,8.11
			C760.76,799.8,764.39,803.43,768.87,803.43"/>
		<path class="st1" d="M795.91,451.98c4.48,0,8.11-3.63,8.11-8.11c0-4.48-3.63-8.11-8.11-8.11c-4.48,0-8.11,3.63-8.11,8.11
			C787.8,448.35,791.43,451.98,795.91,451.98"/>
		<path class="st1" d="M795.91,479.02c4.48,0,8.11-3.63,8.11-8.11c0-4.48-3.63-8.11-8.11-8.11c-4.48,0-8.11,3.63-8.11,8.11
			C787.8,475.39,791.43,479.02,795.91,479.02"/>
		<path class="st1" d="M795.91,506.05c4.48,0,8.11-3.63,8.11-8.11c0-4.48-3.63-8.11-8.11-8.11c-4.48,0-8.11,3.63-8.11,8.11
			C787.8,502.42,791.43,506.05,795.91,506.05"/>
		<path class="st1" d="M795.91,533.09c4.48,0,8.11-3.63,8.11-8.11c0-4.48-3.63-8.11-8.11-8.11c-4.48,0-8.11,3.63-8.11,8.11
			C787.8,529.46,791.43,533.09,795.91,533.09"/>
		<path class="st1" d="M795.91,560.12c4.48,0,8.11-3.63,8.11-8.11c0-4.48-3.63-8.11-8.11-8.11c-4.48,0-8.11,3.63-8.11,8.11
			C787.8,556.49,791.43,560.12,795.91,560.12"/>
		<path class="st1" d="M795.91,587.16c4.48,0,8.11-3.63,8.11-8.11c0-4.48-3.63-8.11-8.11-8.11c-4.48,0-8.11,3.63-8.11,8.11
			C787.8,583.53,791.43,587.16,795.91,587.16"/>
		<path class="st1" d="M795.91,614.19c4.48,0,8.11-3.63,8.11-8.11c0-4.48-3.63-8.11-8.11-8.11c-4.48,0-8.11,3.63-8.11,8.11
			C787.8,610.56,791.43,614.19,795.91,614.19"/>
		<path class="st1" d="M795.91,641.22c4.48,0,8.11-3.63,8.11-8.11c0-4.48-3.63-8.11-8.11-8.11c-4.48,0-8.11,3.63-8.11,8.11
			C787.8,637.59,791.43,641.22,795.91,641.22"/>
		<path class="st1" d="M795.91,668.26c4.48,0,8.11-3.63,8.11-8.11c0-4.48-3.63-8.11-8.11-8.11c-4.48,0-8.11,3.63-8.11,8.11
			C787.8,664.63,791.43,668.26,795.91,668.26"/>
		<path class="st1" d="M795.91,695.29c4.48,0,8.11-3.63,8.11-8.11c0-4.48-3.63-8.11-8.11-8.11c-4.48,0-8.11,3.63-8.11,8.11
			C787.8,691.66,791.43,695.29,795.91,695.29"/>
		<path class="st1" d="M795.91,722.33c4.48,0,8.11-3.63,8.11-8.11c0-4.48-3.63-8.11-8.11-8.11c-4.48,0-8.11,3.63-8.11,8.11
			C787.8,718.7,791.43,722.33,795.91,722.33"/>
		<path class="st1" d="M795.91,749.36c4.48,0,8.11-3.63,8.11-8.11c0-4.48-3.63-8.11-8.11-8.11c-4.48,0-8.11,3.63-8.11,8.11
			C787.8,745.73,791.43,749.36,795.91,749.36"/>
		<path class="st1" d="M822.94,451.98c4.48,0,8.11-3.63,8.11-8.11c0-4.48-3.63-8.11-8.11-8.11c-4.48,0-8.11,3.63-8.11,8.11
			C814.83,448.35,818.46,451.98,822.94,451.98"/>
		<path class="st1" d="M822.94,479.02c4.48,0,8.11-3.63,8.11-8.11c0-4.48-3.63-8.11-8.11-8.11c-4.48,0-8.11,3.63-8.11,8.11
			C814.83,475.39,818.46,479.02,822.94,479.02"/>
		<path class="st1" d="M822.94,506.05c4.48,0,8.11-3.63,8.11-8.11c0-4.48-3.63-8.11-8.11-8.11c-4.48,0-8.11,3.63-8.11,8.11
			C814.83,502.42,818.46,506.05,822.94,506.05"/>
		<path class="st1" d="M822.94,533.09c4.48,0,8.11-3.63,8.11-8.11c0-4.48-3.63-8.11-8.11-8.11c-4.48,0-8.11,3.63-8.11,8.11
			C814.83,529.46,818.46,533.09,822.94,533.09"/>
		<path class="st1" d="M822.94,560.12c4.48,0,8.11-3.63,8.11-8.11c0-4.48-3.63-8.11-8.11-8.11c-4.48,0-8.11,3.63-8.11,8.11
			C814.83,556.49,818.46,560.12,822.94,560.12"/>
		<path class="st1" d="M822.94,587.16c4.48,0,8.11-3.63,8.11-8.11c0-4.48-3.63-8.11-8.11-8.11c-4.48,0-8.11,3.63-8.11,8.11
			C814.83,583.53,818.46,587.16,822.94,587.16"/>
		<path class="st1" d="M822.94,614.19c4.48,0,8.11-3.63,8.11-8.11c0-4.48-3.63-8.11-8.11-8.11c-4.48,0-8.11,3.63-8.11,8.11
			C814.83,610.56,818.46,614.19,822.94,614.19"/>
		<path class="st1" d="M822.94,641.22c4.48,0,8.11-3.63,8.11-8.11c0-4.48-3.63-8.11-8.11-8.11c-4.48,0-8.11,3.63-8.11,8.11
			C814.83,637.59,818.46,641.22,822.94,641.22"/>
		<path class="st1" d="M822.94,668.26c4.48,0,8.11-3.63,8.11-8.11c0-4.48-3.63-8.11-8.11-8.11c-4.48,0-8.11,3.63-8.11,8.11
			C814.83,664.63,818.46,668.26,822.94,668.26"/>
		<path class="st1" d="M822.94,695.29c4.48,0,8.11-3.63,8.11-8.11c0-4.48-3.63-8.11-8.11-8.11c-4.48,0-8.11,3.63-8.11,8.11
			C814.83,691.66,818.46,695.29,822.94,695.29"/>
		<path class="st1" d="M822.94,722.33c4.48,0,8.11-3.63,8.11-8.11c0-4.48-3.63-8.11-8.11-8.11c-4.48,0-8.11,3.63-8.11,8.11
			C814.83,718.7,818.46,722.33,822.94,722.33"/>
		<path class="st1" d="M822.94,749.36c4.48,0,8.11-3.63,8.11-8.11c0-4.48-3.63-8.11-8.11-8.11c-4.48,0-8.11,3.63-8.11,8.11
			C814.83,745.73,818.46,749.36,822.94,749.36"/>
		<path class="st1" d="M849.97,479.02c4.48,0,8.11-3.63,8.11-8.11c0-4.48-3.63-8.11-8.11-8.11c-4.48,0-8.11,3.63-8.11,8.11
			C841.86,475.39,845.49,479.02,849.97,479.02"/>
		<path class="st1" d="M849.97,506.05c4.48,0,8.11-3.63,8.11-8.11c0-4.48-3.63-8.11-8.11-8.11c-4.48,0-8.11,3.63-8.11,8.11
			C841.86,502.42,845.49,506.05,849.97,506.05"/>
		<path class="st1" d="M849.97,533.09c4.48,0,8.11-3.63,8.11-8.11c0-4.48-3.63-8.11-8.11-8.11c-4.48,0-8.11,3.63-8.11,8.11
			C841.86,529.46,845.49,533.09,849.97,533.09"/>
		<path class="st1" d="M849.97,560.12c4.48,0,8.11-3.63,8.11-8.11c0-4.48-3.63-8.11-8.11-8.11c-4.48,0-8.11,3.63-8.11,8.11
			C841.86,556.49,845.49,560.12,849.97,560.12"/>
		<path class="st1" d="M849.97,587.16c4.48,0,8.11-3.63,8.11-8.11c0-4.48-3.63-8.11-8.11-8.11c-4.48,0-8.11,3.63-8.11,8.11
			C841.86,583.53,845.49,587.16,849.97,587.16"/>
		<path class="st1" d="M849.97,614.19c4.48,0,8.11-3.63,8.11-8.11c0-4.48-3.63-8.11-8.11-8.11c-4.48,0-8.11,3.63-8.11,8.11
			C841.86,610.56,845.49,614.19,849.97,614.19"/>
		<path class="st1" d="M849.97,641.22c4.48,0,8.11-3.63,8.11-8.11c0-4.48-3.63-8.11-8.11-8.11c-4.48,0-8.11,3.63-8.11,8.11
			C841.86,637.59,845.49,641.22,849.97,641.22"/>
		<path class="st1" d="M849.97,668.26c4.48,0,8.11-3.63,8.11-8.11c0-4.48-3.63-8.11-8.11-8.11c-4.48,0-8.11,3.63-8.11,8.11
			C841.86,664.63,845.49,668.26,849.97,668.26"/>
		<path class="st1" d="M849.97,695.29c4.48,0,8.11-3.63,8.11-8.11c0-4.48-3.63-8.11-8.11-8.11c-4.48,0-8.11,3.63-8.11,8.11
			C841.86,691.66,845.49,695.29,849.97,695.29"/>
		<path class="st1" d="M849.97,722.33c4.48,0,8.11-3.63,8.11-8.11c0-4.48-3.63-8.11-8.11-8.11c-4.48,0-8.11,3.63-8.11,8.11
			C841.86,718.7,845.49,722.33,849.97,722.33"/>
		<path class="st1" d="M877.01,479.02c4.48,0,8.11-3.63,8.11-8.11c0-4.48-3.63-8.11-8.11-8.11c-4.48,0-8.11,3.63-8.11,8.11
			C868.9,475.39,872.53,479.02,877.01,479.02"/>
		<path class="st1" d="M877.01,506.05c4.48,0,8.11-3.63,8.11-8.11c0-4.48-3.63-8.11-8.11-8.11c-4.48,0-8.11,3.63-8.11,8.11
			C868.9,502.42,872.53,506.05,877.01,506.05"/>
		<path class="st1" d="M877.01,533.09c4.48,0,8.11-3.63,8.11-8.11c0-4.48-3.63-8.11-8.11-8.11c-4.48,0-8.11,3.63-8.11,8.11
			C868.9,529.46,872.53,533.09,877.01,533.09"/>
		<path class="st1" d="M877.01,560.12c4.48,0,8.11-3.63,8.11-8.11c0-4.48-3.63-8.11-8.11-8.11c-4.48,0-8.11,3.63-8.11,8.11
			C868.9,556.49,872.53,560.12,877.01,560.12"/>
		<path class="st1" d="M877.01,587.16c4.48,0,8.11-3.63,8.11-8.11c0-4.48-3.63-8.11-8.11-8.11c-4.48,0-8.11,3.63-8.11,8.11
			C868.9,583.53,872.53,587.16,877.01,587.16"/>
		<path class="st1" d="M877.01,614.19c4.48,0,8.11-3.63,8.11-8.11c0-4.48-3.63-8.11-8.11-8.11c-4.48,0-8.11,3.63-8.11,8.11
			C868.9,610.56,872.53,614.19,877.01,614.19"/>
		<path class="st1" d="M877.01,641.22c4.48,0,8.11-3.63,8.11-8.11c0-4.48-3.63-8.11-8.11-8.11c-4.48,0-8.11,3.63-8.11,8.11
			C868.9,637.59,872.53,641.22,877.01,641.22"/>
		<path class="st1" d="M877.01,668.26c4.48,0,8.11-3.63,8.11-8.11c0-4.48-3.63-8.11-8.11-8.11c-4.48,0-8.11,3.63-8.11,8.11
			C868.9,664.63,872.53,668.26,877.01,668.26"/>
		<path class="st1" d="M877.01,695.29c4.48,0,8.11-3.63,8.11-8.11c0-4.48-3.63-8.11-8.11-8.11c-4.48,0-8.11,3.63-8.11,8.11
			C868.9,691.66,872.53,695.29,877.01,695.29"/>
		<path class="st1" d="M877.01,722.33c4.48,0,8.11-3.63,8.11-8.11c0-4.48-3.63-8.11-8.11-8.11c-4.48,0-8.11,3.63-8.11,8.11
			C868.9,718.7,872.53,722.33,877.01,722.33"/>
		<path class="st1" d="M904.04,479.02c4.48,0,8.11-3.63,8.11-8.11c0-4.48-3.63-8.11-8.11-8.11c-4.48,0-8.11,3.63-8.11,8.11
			C895.93,475.39,899.56,479.02,904.04,479.02"/>
		<path class="st1" d="M904.04,506.05c4.48,0,8.11-3.63,8.11-8.11c0-4.48-3.63-8.11-8.11-8.11c-4.48,0-8.11,3.63-8.11,8.11
			C895.93,502.42,899.56,506.05,904.04,506.05"/>
		<path class="st1" d="M904.04,533.09c4.48,0,8.11-3.63,8.11-8.11c0-4.48-3.63-8.11-8.11-8.11c-4.48,0-8.11,3.63-8.11,8.11
			C895.93,529.46,899.56,533.09,904.04,533.09"/>
		<path class="st1" d="M904.04,560.12c4.48,0,8.11-3.63,8.11-8.11c0-4.48-3.63-8.11-8.11-8.11c-4.48,0-8.11,3.63-8.11,8.11
			C895.93,556.49,899.56,560.12,904.04,560.12"/>
		<path class="st1" d="M904.04,587.16c4.48,0,8.11-3.63,8.11-8.11c0-4.48-3.63-8.11-8.11-8.11c-4.48,0-8.11,3.63-8.11,8.11
			C895.93,583.53,899.56,587.16,904.04,587.16"/>
		<path class="st1" d="M904.04,614.19c4.48,0,8.11-3.63,8.11-8.11c0-4.48-3.63-8.11-8.11-8.11c-4.48,0-8.11,3.63-8.11,8.11
			C895.93,610.56,899.56,614.19,904.04,614.19"/>
		<path class="st1" d="M904.04,641.22c4.48,0,8.11-3.63,8.11-8.11c0-4.48-3.63-8.11-8.11-8.11c-4.48,0-8.11,3.63-8.11,8.11
			C895.93,637.59,899.56,641.22,904.04,641.22"/>
		<path class="st1" d="M904.04,668.26c4.48,0,8.11-3.63,8.11-8.11c0-4.48-3.63-8.11-8.11-8.11c-4.48,0-8.11,3.63-8.11,8.11
			C895.93,664.63,899.56,668.26,904.04,668.26"/>
		<path class="st1" d="M931.08,506.05c4.48,0,8.11-3.63,8.11-8.11c0-4.48-3.63-8.11-8.11-8.11c-4.48,0-8.11,3.63-8.11,8.11
			C922.97,502.42,926.6,506.05,931.08,506.05"/>
		<path class="st1" d="M931.08,533.09c4.48,0,8.11-3.63,8.11-8.11c0-4.48-3.63-8.11-8.11-8.11c-4.48,0-8.11,3.63-8.11,8.11
			C922.97,529.46,926.6,533.09,931.08,533.09"/>
		<path class="st1" d="M931.08,560.12c4.48,0,8.11-3.63,8.11-8.11c0-4.48-3.63-8.11-8.11-8.11c-4.48,0-8.11,3.63-8.11,8.11
			C922.97,556.49,926.6,560.12,931.08,560.12"/>
		<path class="st1" d="M931.08,587.16c4.48,0,8.11-3.63,8.11-8.11c0-4.48-3.63-8.11-8.11-8.11c-4.48,0-8.11,3.63-8.11,8.11
			C922.97,583.53,926.6,587.16,931.08,587.16"/>
		<path class="st1" d="M958.11,506.05c4.48,0,8.11-3.63,8.11-8.11c0-4.48-3.63-8.11-8.11-8.11c-4.48,0-8.11,3.63-8.11,8.11
			C950,502.42,953.63,506.05,958.11,506.05"/>
		<path class="st1" d="M958.11,533.09c4.48,0,8.11-3.63,8.11-8.11c0-4.48-3.63-8.11-8.11-8.11c-4.48,0-8.11,3.63-8.11,8.11
			C950,529.46,953.63,533.09,958.11,533.09"/>
		<path class="st1" d="M958.11,560.12c4.48,0,8.11-3.63,8.11-8.11c0-4.48-3.63-8.11-8.11-8.11c-4.48,0-8.11,3.63-8.11,8.11
			C950,556.49,953.63,560.12,958.11,560.12"/>
		<path class="st1" d="M662,284.67c4.48,0,8.11-3.63,8.11-8.11c0-4.48-3.63-8.11-8.11-8.11c-4.48,0-8.11,3.63-8.11,8.11
			C653.89,281.04,657.52,284.67,662,284.67"/>
		<path class="st1" d="M464.94,172.14c4.48,0,8.11-3.63,8.11-8.11c0-4.48-3.63-8.11-8.11-8.11c-4.48,0-8.11,3.63-8.11,8.11
			C456.83,168.51,460.46,172.14,464.94,172.14"/>
		<path class="st1" d="M471.49,1073.78c4.48,0,8.11-3.63,8.11-8.11c0-4.48-3.63-8.11-8.11-8.11c-4.48,0-8.11,3.63-8.11,8.11
			C463.38,1070.14,467.01,1073.78,471.49,1073.78"/>
		<path class="st1" d="M363.36,235.71c4.48,0,8.11-3.63,8.11-8.11c0-4.48-3.63-8.11-8.11-8.11c-4.48,0-8.11,3.63-8.11,8.11
			C355.25,232.08,358.88,235.71,363.36,235.71"/>
	</g>
	<g>
		<path class="st2" d="M120.05,127.57c4.48,0,8.11-3.63,8.11-8.11c0-4.48-3.63-8.11-8.11-8.11c-4.48,0-8.11,3.63-8.11,8.11
			C111.94,123.94,115.57,127.57,120.05,127.57"/>
		<path class="st3" d="M201.15,235.71c4.48,0,8.11-3.63,8.11-8.11c0-4.48-3.63-8.11-8.11-8.11c-4.48,0-8.11,3.63-8.11,8.11
			C193.04,232.08,196.67,235.71,201.15,235.71"/>
		<path class="st4" d="M412.09,145.11c4.48,0,8.11-3.63,8.11-8.11c0-4.48-3.63-8.11-8.11-8.11c-4.48,0-8.11,3.63-8.11,8.11
			C403.98,141.47,407.61,145.11,412.09,145.11"/>
		<path class="st5" d="M525.56,208.68c4.48,0,8.11-3.63,8.11-8.11c0-4.48-3.63-8.11-8.11-8.11c-4.48,0-8.11,3.63-8.11,8.11
			C517.45,205.04,521.08,208.68,525.56,208.68"/>
		<path class="st6" d="M282.25,262.74c4.48,0,8.11-3.63,8.11-8.11c0-4.48-3.63-8.11-8.11-8.11c-4.48,0-8.11,3.63-8.11,8.11
			C274.14,259.11,277.77,262.74,282.25,262.74"/>
		<path class="st7" d="M498.53,911.57c4.48,0,8.11-3.63,8.11-8.11c0-4.48-3.63-8.11-8.11-8.11c-4.48,0-8.11,3.63-8.11,8.11
			C490.42,907.94,494.05,911.57,498.53,911.57"/>
		<path class="st8" d="M660.73,749.36c4.48,0,8.11-3.63,8.11-8.11c0-4.48-3.63-8.11-8.11-8.11c-4.48,0-8.11,3.63-8.11,8.11
			C652.62,745.73,656.25,749.36,660.73,749.36"/>
		<path class="st9" d="M660.73,911.57c4.48,0,8.11-3.63,8.11-8.11c0-4.48-3.63-8.11-8.11-8.11c-4.48,0-8.11,3.63-8.11,8.11
			C652.62,907.94,656.25,911.57,660.73,911.57"/>
		<path class="st10" d="M714.8,857.5c4.48,0,8.11-3.63,8.11-8.11c0-4.48-3.63-8.11-8.11-8.11c-4.48,0-8.11,3.63-8.11,8.11
			C706.69,853.87,710.32,857.5,714.8,857.5"/>
		<path class="st11" d="M822.94,641.22c4.48,0,8.11-3.63,8.11-8.11c0-4.48-3.63-8.11-8.11-8.11c-4.48,0-8.11,3.63-8.11,8.11
			C814.83,637.59,818.46,641.22,822.94,641.22"/>
		<path class="st12" d="M363.36,235.71c4.48,0,8.11-3.63,8.11-8.11c0-4.48-3.63-8.11-8.11-8.11c-4.48,0-8.11,3.63-8.11,8.11
			C355.25,232.08,358.88,235.71,363.36,235.71"/>
	</g>
</g>
</svg>
